<svg xmlns="http://www.w3.org/2000/svg" viewBox="0 0 60 40" fill="none">
  <path d="M19.0273 31.325C18.6648 31.325 18.3523 31.325 18.0398 31.2875C15.2398 30.925 12.8523 29.375 11.3398 26.9C10.5523 25.625 10.1023 24.2 10.0148 22.6625C9.92732 21.075 10.2273 19.525 10.9148 18.025C12.3398 14.9625 15.6148 12.825 18.8898 12.825C18.9773 12.825 19.0648 12.825 19.1648 12.825L19.3273 12.45C19.4148 12.2375 19.5148 12.025 19.6148 11.825C20.9023 9.2375 23.3023 7.275 26.1898 6.4375C26.5523 6.3375 26.9898 6.225 27.5023 6.125C27.7148 6.0875 27.9273 6.0625 28.1273 6.0625C28.2898 6.0625 28.4648 6.05 28.6148 6.025C28.7023 6.0125 28.8398 6 29.0273 6C29.1273 6 29.2273 6 29.3523 6.0125C29.8273 6.025 30.3273 6.05 30.7773 6.125C33.7648 6.5875 36.3398 8.175 38.0398 10.5875C38.5023 11.25 38.8773 11.9875 39.1898 12.8375C39.1898 12.8375 39.2523 12.825 39.2648 12.825C42.9773 12.825 46.4523 15.275 47.7523 18.7875C48.3898 20.4875 48.5148 22.225 48.1523 24.0125C47.4148 27.65 44.5773 30.4625 40.9148 31.2C40.4898 31.2875 40.1023 31.3125 39.6023 31.3125H19.0273V31.325Z" fill="url(#paint0_linear_1129_554)"/>
  <path d="M30.2508 26.6866C30.2021 26.5367 30.0725 26.4535 29.9266 26.4535H25.0312C24.2694 26.4535 23.6534 25.8208 23.6534 25.0382V16.1303C23.6534 15.3477 24.2694 14.715 25.0312 14.715H33.7035C34.4653 14.715 35.0813 15.3477 35.0813 16.1303V20.5759C35.0813 20.7757 35.2434 20.9256 35.4379 20.9256C35.7297 20.9256 36.0052 20.9922 36.2646 21.1254C36.4267 21.2253 36.6374 21.142 36.7347 20.9755C36.7509 20.9256 36.7833 20.859 36.7671 20.809V16.1303C36.7671 14.3986 35.4055 13 33.7197 13H25.0474C23.3616 13 22 14.3986 22 16.1303V25.0382C22 26.7698 23.3616 28.1685 25.0474 28.1685H30.6398C30.8343 28.1685 30.9802 28.002 30.9802 27.8188C30.9802 27.7189 30.9478 27.6357 30.883 27.569C30.6236 27.3359 30.4129 27.0362 30.2508 26.7032V26.6866ZM32.1959 17.3624H32.2122C32.4553 17.3624 32.6498 17.5622 32.6498 17.8119V23.1734C32.6498 23.4231 32.4553 23.6229 32.2122 23.6229H32.1959C31.9528 23.6229 31.7583 23.4231 31.7583 23.1734V17.8119C31.7583 17.5622 31.9528 17.3624 32.1959 17.3624ZM38.8906 26.1538L37.3669 25.5377C36.8157 25.3213 36.3943 24.8717 36.1673 24.3056L35.5676 22.7571C35.5676 22.7571 35.4703 22.6572 35.4055 22.6572C35.3406 22.6572 35.2758 22.7072 35.2434 22.7571L34.6436 24.3056C34.4329 24.8717 33.9952 25.3046 33.4441 25.5377L31.9366 26.1538C31.8393 26.1871 31.8069 26.287 31.8393 26.3869C31.8555 26.4368 31.888 26.4701 31.9366 26.4868L33.4441 27.1028C33.9952 27.3193 34.4167 27.7689 34.6436 28.335L35.2434 29.8834C35.2434 29.8834 35.3406 30 35.4055 30C35.4703 30 35.5352 29.9501 35.5676 29.8834L36.1673 28.335C36.3781 27.7689 36.8157 27.3359 37.3669 27.1028L38.8906 26.4868C38.9878 26.4535 39.0203 26.3536 38.9878 26.2537C38.9716 26.2037 38.9392 26.1704 38.8906 26.1538ZM30.3805 23.3399L28.565 17.5122C28.5325 17.4123 28.4515 17.3624 28.3704 17.3624H27.5275C27.4303 17.3624 27.3492 17.429 27.333 17.5122L25.5175 23.3399C25.4851 23.4564 25.5337 23.573 25.6472 23.6229C25.6634 23.6229 25.6796 23.6229 25.712 23.6229H26.2308C26.328 23.6229 26.4091 23.5563 26.4253 23.4731L26.7008 22.5406H29.1647L29.4565 23.4731C29.4889 23.573 29.57 23.6229 29.651 23.6229H30.1697C30.2832 23.6229 30.3805 23.523 30.3805 23.4065C30.3805 23.3898 30.3805 23.3732 30.3805 23.3399ZM26.9926 21.6082L27.9328 18.6112L28.8729 21.6082H26.9926Z" fill="url(#paint1_linear_1129_554)"/>
  <defs>
    <linearGradient id="paint0_linear_1129_554" x1="10.0023" y1="31.5125" x2="15.0067" y2="-15.4351" gradientUnits="userSpaceOnUse">
      <stop stop-color="#09AAAA"/>
      <stop offset="0.25" stop-color="#0C93C0"/>
      <stop offset="0.75" stop-color="#0FF080"/>
    </linearGradient>
    <linearGradient id="paint1_linear_1129_554" x1="10" y1="32" x2="7.66159" y2="11.2777" gradientUnits="userSpaceOnUse">
      <stop stop-color="#CFFCFC"/>
      <stop offset="0.25" stop-color="#CFF1FC"/>
      <stop offset="0.75" stop-color="#CFFCE6"/>
    </linearGradient>
  </defs>
</svg>