<svg xmlns="http://www.w3.org/2000/svg" viewBox="0 0 280 200" fill="none">
<text x="140" y="20" text-anchor="middle" fill="rgba(255,255,255,0.38)" font-family="IBM Plex Mono, monospace" font-size="7.5">NOTIFY → SUGGEST → APPROVE → AUTONOMOUS</text>
<g transform="translate(38,138)">
  <rect width="42" height="36" rx="3" stroke="rgba(255,255,255,0.21)" stroke-dasharray="3 2" fill="rgba(132,204,22,0.06)"/>
  <circle cx="21" cy="13" r="5.5" stroke="rgba(132,204,22,0.6)" fill="none"/>
  <line x1="21" y1="8.5" x2="21" y2="13" stroke="rgba(132,204,22,0.6)"/>
  <text x="21" y="30" text-anchor="middle" fill="rgba(132,204,22,0.72)" font-family="IBM Plex Mono, monospace" font-size="7" font-weight="500">L1</text>
</g>
<g transform="translate(90,106)">
  <rect width="42" height="68" rx="3" stroke="rgba(132,204,22,0.5)" fill="rgba(132,204,22,0.08)"/>
  <circle cx="21" cy="18" r="7" stroke="rgba(132,204,22,0.64)" fill="rgba(132,204,22,0.09)"/>
  <line x1="21" y1="13" x2="21" y2="23" stroke="rgba(132,204,22,0.7)"/>
  <line x1="17" y1="27" x2="25" y2="27" stroke="rgba(132,204,22,0.5)"/>
  <text x="21" y="46" text-anchor="middle" fill="rgba(132,204,22,0.8)" font-family="IBM Plex Mono, monospace" font-size="7" font-weight="500">L2</text>
  <text x="21" y="57" text-anchor="middle" fill="rgba(255,255,255,0.3)" font-family="IBM Plex Mono, monospace" font-size="5">SUGGEST</text>
</g>
<g transform="translate(142,72)">
  <rect width="42" height="102" rx="3" stroke="rgba(132,204,22,0.7)" stroke-width="1.2" fill="rgba(132,204,22,0.11)"/>
  <circle cx="21" cy="20" r="9" stroke="#84cc16" stroke-width="1.2" fill="rgba(132,204,22,0.15)"/>
  <circle cx="21" cy="20" r="2" fill="#84cc16" opacity="0.88"/>
  <text x="21" y="44" text-anchor="middle" fill="#84cc16" font-family="IBM Plex Mono, monospace" font-size="7" font-weight="500">L3</text>
  <text x="21" y="55" text-anchor="middle" fill="rgba(255,255,255,0.45)" font-family="IBM Plex Mono, monospace" font-size="5">APPROVE</text>
  <polyline points="14,68 19,73 28,64" stroke="#84cc16" stroke-width="1.5" stroke-linecap="round" stroke-linejoin="round" opacity="0.74"/>
  <text x="21" y="90" text-anchor="middle" fill="rgba(255,255,255,0.3)" font-family="IBM Plex Mono, monospace" font-size="5">RBAC GATE</text>
</g>
<g transform="translate(194,40)">
  <rect width="42" height="134" rx="3" stroke="rgba(132,204,22,0.3)" stroke-dasharray="3 2" fill="rgba(132,204,22,0.04)"/>
  <path d="M21 12L16 22L20 22L19 32L26 20L22 20Z" stroke="#84cc16" fill="rgba(132,204,22,0.24)" opacity="0.8"/>
  <text x="21" y="48" text-anchor="middle" fill="rgba(132,204,22,0.72)" font-family="IBM Plex Mono, monospace" font-size="7" font-weight="500">L4</text>
  <text x="21" y="59" text-anchor="middle" fill="rgba(255,255,255,0.3)" font-family="IBM Plex Mono, monospace" font-size="5">AUTO</text>
</g>
<line x1="82" y1="156" x2="88" y2="150" stroke="rgba(132,204,22,0.45)"/>
<line x1="134" y1="132" x2="140" y2="126" stroke="rgba(132,204,22,0.44)"/>
<line x1="186" y1="106" x2="192" y2="98" stroke="rgba(132,204,22,0.45)"/>
</svg>
