<svg xmlns="http://www.w3.org/2000/svg" viewBox="0 0 280 200" fill="none">
<g transform="translate(140,90)">
  <path d="M0-65L55-46L55 8C55 38 28 58 0 68C-28 58-55 38-55 8L-55-46Z" stroke="rgba(255,255,255,0.3)" stroke-dasharray="4 3" fill="none"/>
  <path d="M0-50L44-34L44 6C44 30 22 46 0 54C-22 46-44 30-44 6L-44-34Z" stroke="#10b981" stroke-width="1.5" fill="rgba(16,185,129,0.12)"/>
  <circle cx="0" cy="-5" r="16" stroke="rgba(16,185,129,0.6)" fill="none"/>
  <circle cx="0" cy="-5" r="8" stroke="rgba(16,185,129,0.8)" fill="none"/>
  <circle cx="0" cy="-5" r="2.5" fill="#10b981" opacity="0.94"/>
  <line x1="0" y1="-5" x2="12" y2="-14" stroke="#10b981" stroke-width="1.5" opacity="0.8">
    <animateTransform attributeName="transform" type="rotate" from="0 0 -5" to="360 0 -5" dur="4s" repeatCount="indefinite"/>
  </line>
  <text x="0" y="38" text-anchor="middle" fill="rgba(16,185,129,0.72)" font-family="IBM Plex Mono, monospace" font-size="10" font-weight="500">24/7</text>
</g>
<circle cx="82" cy="40" r="2.5" fill="#10b981" opacity="0.7">
  <animate attributeName="opacity" values=".35;.75;.35" dur="3s" repeatCount="indefinite"/>
</circle>
<circle cx="198" cy="40" r="2.5" fill="#10b981" opacity="0.7">
  <animate attributeName="opacity" values=".35;.75;.35" dur="3s" begin="1s" repeatCount="indefinite"/>
</circle>
</svg>
