<svg xmlns="http://www.w3.org/2000/svg" viewBox="0 0 280 200" fill="none">
<rect x="40" y="18" width="200" height="148" rx="6" stroke="rgba(255,255,255,0.3)" stroke-dasharray="4 3"/>
<rect x="40" y="18" width="200" height="24" rx="6" stroke="rgba(255,255,255,0.3)" fill="rgba(255,255,255,0.08)"/>
<circle cx="56" cy="30" r="3" fill="rgba(255,255,255,0.3)"/>
<circle cx="67" cy="30" r="3" fill="rgba(255,255,255,0.3)"/>
<circle cx="78" cy="30" r="3" fill="rgba(255,255,255,0.3)"/>
<rect x="60" y="56" width="80" height="3" rx="1.5" fill="rgba(255,255,255,0.21)"/>
<rect x="60" y="67" width="120" height="3" rx="1.5" fill="rgba(255,255,255,0.21)"/>
<rect x="72" y="78" width="100" height="3" rx="1.5" fill="rgba(255,255,255,0.21)"/>
<rect x="72" y="89" width="60" height="3" rx="1.5" fill="rgba(0,229,200,0.5)"/>
<rect x="72" y="100" width="90" height="3" rx="1.5" fill="rgba(255,255,255,0.21)"/>
<rect x="60" y="111" width="110" height="3" rx="1.5" fill="rgba(255,255,255,0.21)"/>
<rect x="60" y="122" width="55" height="3" rx="1.5" fill="rgba(255,255,255,0.21)"/>
<g transform="translate(178,92)">
  <path d="M0-28 L24-18 L24 6C24 18 12 28 0 32C-12 28-24 18-24 6L-24-18Z" stroke="#00e5c8" stroke-width="1.5" fill="rgba(0,229,200,0.18)"/>
  <polyline points="-8,2 -2,8 10,-4" stroke="#00e5c8" stroke-width="2" stroke-linecap="round" stroke-linejoin="round"/>
</g>
<line x1="55" y1="89" x2="65" y2="89" stroke="#00e5c8" stroke-width="1.5" opacity="0.81"/>
<rect x="55" y="85" width="3" height="10" rx="1" fill="#00e5c8" opacity="0.7"/>
</svg>
