<svg xmlns="http://www.w3.org/2000/svg" viewBox="0 0 280 200" fill="none"><g transform="translate(140,88)"><path d="M0-28L28-14L28 14L0 28L-28 14L-28-14Z" stroke="rgba(255,255,255,0.3)" stroke-dasharray="3 2" fill="none"/><path d="M0-28L28-14L0 0L-28-14Z" fill="rgba(251,146,60,0.18)" stroke="#fb923c" stroke-width=".8" opacity="0.8"/><path d="M0 0L28-14L28 14L0 28Z" fill="rgba(251,146,60,0.12)" stroke="#fb923c" stroke-width=".6" opacity="0.7"/><path d="M0 0L-28-14L-28 14L0 28Z" fill="rgba(251,146,60,0.08)" stroke="#fb923c" stroke-width=".6" opacity="0.5"/><text x="0" y="-3" text-anchor="middle" fill="#fb923c" font-family="IBM Plex Mono, monospace" font-size="7.5" font-weight="500" opacity="0.94">MCP</text></g><circle cx="55" cy="42" r="13" stroke="rgba(255,255,255,0.24)" stroke-dasharray="3 2" fill="rgba(251,146,60,0.06)"/><text x="55" y="46" text-anchor="middle" fill="rgba(255,255,255,0.56)" font-family="IBM Plex Mono, monospace" font-size="7">AWS</text><line x1="68" y1="48" x2="114" y2="74" stroke="rgba(251,146,60,0.5)"/><circle cx="68" cy="48" r="2" fill="#fb923c" opacity="0.64"/><circle cx="225" cy="42" r="13" stroke="rgba(255,255,255,0.24)" stroke-dasharray="3 2" fill="rgba(251,146,60,0.06)"/><text x="225" y="46" text-anchor="middle" fill="rgba(255,255,255,0.56)" font-family="IBM Plex Mono, monospace" font-size="7">Azure</text><line x1="212" y1="48" x2="166" y2="74" stroke="rgba(251,146,60,0.5)"/><circle cx="52" cy="130" r="13" stroke="rgba(255,255,255,0.24)" stroke-dasharray="3 2" fill="rgba(251,146,60,0.06)"/><text x="52" y="134" text-anchor="middle" fill="rgba(255,255,255,0.56)" font-family="IBM Plex Mono, monospace" font-size="7">Slack</text><line x1="65" y1="125" x2="114" y2="102" stroke="rgba(251,146,60,0.38)"/><circle cx="228" cy="130" r="13" stroke="rgba(255,255,255,0.24)" stroke-dasharray="3 2" fill="rgba(251,146,60,0.06)"/><text x="228" y="134" text-anchor="middle" fill="rgba(255,255,255,0.56)" font-family="IBM Plex Mono, monospace" font-size="6.5">GitHub</text><line x1="215" y1="125" x2="166" y2="102" stroke="rgba(251,146,60,0.38)"/><circle cx="140" cy="168" r="13" stroke="rgba(255,255,255,0.24)" stroke-dasharray="3 2" fill="rgba(251,146,60,0.06)"/><text x="140" y="172" text-anchor="middle" fill="rgba(255,255,255,0.56)" font-family="IBM Plex Mono, monospace" font-size="6.5">Datadog</text><line x1="140" y1="155" x2="140" y2="116" stroke="rgba(251,146,60,0.38)"/><circle cx="140" cy="18" r="13" stroke="rgba(255,255,255,0.24)" stroke-dasharray="3 2" fill="rgba(251,146,60,0.06)"/><text x="140" y="22" text-anchor="middle" fill="rgba(255,255,255,0.56)" font-family="IBM Plex Mono, monospace" font-size="7">K8s</text><line x1="140" y1="31" x2="140" y2="60" stroke="rgba(251,146,60,0.5)"/><circle r="1.8" fill="#fb923c" opacity="0.8"><animateMotion dur="3s" repeatCount="indefinite" path="M68,48 L114,74"/></circle><circle r="1.8" fill="#fb923c" opacity="0.8"><animateMotion dur="3s" repeatCount="indefinite" begin="1.5s" path="M212,48 L166,74"/></circle></svg>