<svg viewBox="0 0 280 200" fill="none" xmlns="http://www.w3.org/2000/svg">
  <g transform="translate(140,95)">
    <rect x="-60" y="-50" width="4" height="100" rx="2" fill="rgba(239,68,68,0.3)" stroke="rgba(239,68,68,0.5)" stroke-width=".8" />
    <rect x="-30" y="-50" width="4" height="100" rx="2" fill="rgba(239,68,68,0.3)" stroke="rgba(239,68,68,0.5)" stroke-width=".8" />
    <rect x="0" y="-50" width="4" height="100" rx="2" fill="rgba(239,68,68,0.3)" stroke="rgba(239,68,68,0.6)" stroke-width=".8" />
    <rect x="30" y="-50" width="4" height="100" rx="2" fill="rgba(239,68,68,0.3)" stroke="rgba(239,68,68,0.5)" stroke-width=".8" />
    <rect x="60" y="-50" width="4" height="100" rx="2" fill="rgba(239,68,68,0.3)" stroke="rgba(239,68,68,0.5)" stroke-width=".8" />
    <rect x="-60" y="-20" width="124" height="2.5" rx="1" fill="rgba(239,68,68,0.38)" />
    <rect x="-60" y="10" width="124" height="2.5" rx="1" fill="rgba(239,68,68,0.38)" />
    <circle cx="2" cy="-5" r="18" fill="rgba(239,68,68,0.18)" stroke="#ef4444" stroke-width="1.2" />
    <path d="M2-14 L2 2" stroke="#ef4444" stroke-width="2" stroke-linecap="round" />
    <circle cx="2" cy="7" r="1.5" fill="#ef4444" />
    <text x="-58" y="65" fill="rgba(255,255,255,0.45)" font-family="IBM Plex Mono, monospace" font-size="6">PII DETECT</text>
    <text x="-8" y="65" fill="rgba(255,255,255,0.45)" font-family="IBM Plex Mono, monospace" font-size="6">SCHEMA</text>
    <text x="38" y="65" fill="rgba(255,255,255,0.45)" font-family="IBM Plex Mono, monospace" font-size="6">INJECT DEF</text>
  </g>
  <line x1="30" y1="95" x2="55" y2="95" stroke="rgba(239,68,68,0.6)" stroke-width="1.5" stroke-dasharray="3 2" />
  <text x="25" y="85" fill="rgba(239,68,68,0.64)" font-family="IBM Plex Mono, monospace" font-size="7">GUARD-IN</text>
  <line x1="225" y1="95" x2="250" y2="95" stroke="rgba(239,68,68,0.6)" stroke-width="1.5" stroke-dasharray="3 2" />
  <text x="222" y="85" fill="rgba(239,68,68,0.64)" font-family="IBM Plex Mono, monospace" font-size="7">GUARD-OUT</text>
</svg>
