<svg xmlns="http://www.w3.org/2000/svg" viewBox="0 0 280 200" fill="none">
<g transform="translate(140,82)">
  <path d="M-45-10C-45-45 45-45 45-10" stroke="rgba(255,255,255,0.3)" stroke-width="1.5" stroke-dasharray="4 3" fill="none"/>
  <path d="M-32-8C-32-35 32-35 32-8" stroke="#3b82f6" stroke-width="1.5" fill="none"/>
  <rect x="-52" y="-14" width="16" height="30" rx="8" stroke="#3b82f6" stroke-width="1.5" fill="rgba(59,130,246,0.24)"/>
  <rect x="36" y="-14" width="16" height="30" rx="8" stroke="#3b82f6" stroke-width="1.5" fill="rgba(59,130,246,0.24)"/>
  <path d="M36 10Q42 32 20 38" stroke="rgba(255,255,255,0.3)" stroke-dasharray="3 2"/>
  <circle cx="18" cy="40" r="5" stroke="#3b82f6" stroke-width="1.5" fill="rgba(59,130,246,0.3)"/>
</g>
<g transform="translate(45,140)">
  <rect width="54" height="19" rx="9" stroke="#3b82f6" fill="rgba(59,130,246,0.21)"/>
  <text x="10" y="13" fill="#3b82f6" font-family="IBM Plex Mono, monospace" font-size="8" opacity="0.94">Tier 1</text>
</g>
<g transform="translate(112,140)">
  <rect width="54" height="19" rx="9" stroke="rgba(59,130,246,0.72)" fill="rgba(59,130,246,0.12)"/>
  <text x="10" y="13" fill="rgba(59,130,246,0.88)" font-family="IBM Plex Mono, monospace" font-size="8">Tier 2</text>
</g>
<g transform="translate(179,140)">
  <rect width="54" height="19" rx="9" stroke="rgba(59,130,246,0.5)" fill="rgba(59,130,246,0.06)"/>
  <text x="10" y="13" fill="rgba(59,130,246,0.72)" font-family="IBM Plex Mono, monospace" font-size="8">Tier 3</text>
</g>
<text x="140" y="180" text-anchor="middle" fill="rgba(255,255,255,0.45)" font-family="IBM Plex Mono, monospace" font-size="8.5">70% AUTO-RESOLVED</text>
</svg>
