<svg xmlns="http://www.w3.org/2000/svg" viewBox="0 0 280 200" fill="none">
<g transform="translate(140,88)">
  <path d="M0-50 L50 36 L-50 36Z" stroke="rgba(255,255,255,0.3)" stroke-dasharray="4 3" fill="none"/>
  <path d="M0-35 L35 24 L-35 24Z" stroke="#f43f5e" stroke-width="1.2" fill="rgba(244,63,94,0.15)"/>
  <line x1="0" y1="-15" x2="0" y2="5" stroke="#f43f5e" stroke-width="2.5" stroke-linecap="round"/>
  <circle cx="0" cy="14" r="2" fill="#f43f5e"/>
</g>
<circle cx="140" cy="88" r="58" stroke="rgba(244,63,94,0.3)" stroke-dasharray="3 4" fill="none"/>
<circle cx="140" cy="88" r="78" stroke="rgba(244,63,94,0.18)" stroke-dasharray="3 4" fill="none"/>
<circle cx="70" cy="50" r="3.5" fill="#f43f5e" opacity="0.8"/>
<line x1="73" y1="52" x2="106" y2="70" stroke="rgba(244,63,94,0.5)"/>
<circle cx="210" cy="50" r="3.5" fill="#f43f5e" opacity="0.8"/>
<line x1="207" y1="52" x2="174" y2="70" stroke="rgba(244,63,94,0.5)"/>
<circle cx="70" cy="128" r="3.5" fill="#f43f5e" opacity="0.7"/>
<line x1="73" y1="126" x2="106" y2="108" stroke="rgba(244,63,94,0.45)"/>
<circle cx="210" cy="128" r="3.5" fill="#f43f5e" opacity="0.7"/>
<line x1="207" y1="126" x2="174" y2="108" stroke="rgba(244,63,94,0.45)"/>
<circle cx="140" cy="88" r="3" fill="#f43f5e" opacity="0.94">
  <animate attributeName="r" values="3;8;3" dur="2s" repeatCount="indefinite"/>
  <animate attributeName="opacity" values=".7;.15;.7" dur="2s" repeatCount="indefinite"/>
</circle>
<rect x="65" y="170" width="150" height="2" rx="1" fill="rgba(255,255,255,0.15)"/>
<rect x="65" y="170" width="95" height="2" rx="1" fill="rgba(244,63,94,0.7)"/>
<circle cx="160" cy="171" r="3.5" fill="#f43f5e" opacity="0.81"/>
<text x="67" y="184" fill="rgba(255,255,255,0.44)" font-family="IBM Plex Mono, monospace" font-size="8.5">MTTR: 4m 32s</text>
</svg>
