<svg xmlns="http://www.w3.org/2000/svg" viewBox="0 0 280 200" fill="none">
<g transform="translate(140,65)">
  <path d="M-50 10C-50-20-25-35 0-30C10-50 50-45 55-25C75-20 75 5 60 15L-50 15Z" stroke="rgba(255,255,255,0.3)" stroke-dasharray="4 3" fill="none"/>
  <path d="M-40 8C-40-14-20-26 0-22C8-38 40-34 44-18C60-14 60 4 48 12L-40 12Z" stroke="#8b5cf6" stroke-width="1.2" fill="rgba(139,92,246,0.15)"/>
</g>
<g transform="translate(60,108)">
  <rect width="40" height="56" rx="3" stroke="rgba(255,255,255,0.24)" stroke-dasharray="3 2" fill="rgba(139,92,246,0.09)"/>
  <text x="20" y="22" text-anchor="middle" fill="#8b5cf6" font-family="IBM Plex Mono, monospace" font-size="15" font-weight="500">$</text>
  <text x="20" y="44" text-anchor="middle" fill="rgba(255,255,255,0.5)" font-family="IBM Plex Mono, monospace" font-size="7">COST</text>
</g>
<g transform="translate(120,108)">
  <rect width="40" height="56" rx="3" stroke="rgba(255,255,255,0.24)" stroke-dasharray="3 2" fill="rgba(139,92,246,0.09)"/>
  <path d="M20 14L32 19L32 29C32 36 26 41 20 44C14 41 8 36 8 29L8 19Z" stroke="#8b5cf6" fill="none" opacity="0.8"/>
  <text x="20" y="66" text-anchor="middle" fill="rgba(255,255,255,0.5)" font-family="IBM Plex Mono, monospace" font-size="7">SECURE</text>
</g>
<g transform="translate(180,108)">
  <rect width="40" height="56" rx="3" stroke="rgba(255,255,255,0.24)" stroke-dasharray="3 2" fill="rgba(139,92,246,0.09)"/>
  <polyline points="8,40 16,28 24,34 34,18" stroke="#8b5cf6" stroke-width="1.2" fill="none" stroke-linecap="round" stroke-linejoin="round"/>
  <text x="20" y="66" text-anchor="middle" fill="rgba(255,255,255,0.5)" font-family="IBM Plex Mono, monospace" font-size="7">PERF</text>
</g>
<line x1="100" y1="82" x2="80" y2="108" stroke="rgba(139,92,246,0.45)" stroke-dasharray="2 2"/>
<line x1="140" y1="82" x2="140" y2="108" stroke="rgba(139,92,246,0.45)" stroke-dasharray="2 2"/>
<line x1="180" y1="82" x2="200" y2="108" stroke="rgba(139,92,246,0.45)" stroke-dasharray="2 2"/>
</svg>
