<svg xmlns="http://www.w3.org/2000/svg" viewBox="0 0 280 200" fill="none"><g transform="translate(140,92)"><circle cx="0" cy="0" r="22" stroke="#14b8a6" stroke-width="1.5" fill="rgba(20,184,166,0.15)"/><circle cx="0" cy="0" r="14" stroke="rgba(20,184,166,0.7)" stroke-dasharray="3 2" fill="none"/><path d="M-6-6C-2-10 2-10 6-6C10-2 10 2 6 6C2 10-2 10-6 6C-10 2-10-2-6-6" stroke="#14b8a6" stroke-width=".8" fill="none" opacity="0.8"/><path d="M0-8C4-4 4 4 0 8" stroke="#14b8a6" stroke-width=".6" fill="none" opacity="0.64"/><path d="M-8 0C-4 4 4 4 8 0" stroke="#14b8a6" stroke-width=".6" fill="none" opacity="0.64"/><circle cx="-60" cy="-40" r="12" stroke="rgba(255,255,255,0.24)" stroke-dasharray="3 2" fill="rgba(20,184,166,0.06)"/><text x="-60" y="-37" text-anchor="middle" fill="rgba(20,184,166,0.8)" font-family="IBM Plex Mono, monospace" font-size="5.5">Incidents</text><line x1="-50" y1="-32" x2="-18" y2="-10" stroke="rgba(20,184,166,0.5)"/><circle cx="-50" cy="-32" r="1.8" fill="#14b8a6" opacity="0.64"/><circle cx="60" cy="-42" r="12" stroke="rgba(255,255,255,0.24)" stroke-dasharray="3 2" fill="rgba(20,184,166,0.06)"/><text x="60" y="-39" text-anchor="middle" fill="rgba(20,184,166,0.8)" font-family="IBM Plex Mono, monospace" font-size="5.5">KB Docs</text><line x1="50" y1="-34" x2="18" y2="-10" stroke="rgba(20,184,166,0.5)"/><circle cx="-65" cy="30" r="12" stroke="rgba(255,255,255,0.24)" stroke-dasharray="3 2" fill="rgba(20,184,166,0.06)"/><text x="-65" y="33" text-anchor="middle" fill="rgba(20,184,166,0.8)" font-family="IBM Plex Mono, monospace" font-size="5.5">Runbooks</text><line x1="-55" y1="24" x2="-18" y2="8" stroke="rgba(20,184,166,0.45)"/><circle cx="65" cy="32" r="12" stroke="rgba(255,255,255,0.24)" stroke-dasharray="3 2" fill="rgba(20,184,166,0.06)"/><text x="65" y="35" text-anchor="middle" fill="rgba(20,184,166,0.8)" font-family="IBM Plex Mono, monospace" font-size="5.5">Slack</text><line x1="55" y1="26" x2="18" y2="8" stroke="rgba(20,184,166,0.45)"/><circle cx="0" cy="60" r="12" stroke="rgba(255,255,255,0.24)" stroke-dasharray="3 2" fill="rgba(20,184,166,0.06)"/><text x="0" y="63" text-anchor="middle" fill="rgba(20,184,166,0.8)" font-family="IBM Plex Mono, monospace" font-size="5.5">Wiki</text><line x1="0" y1="48" x2="0" y2="22" stroke="rgba(20,184,166,0.45)"/></g><rect x="30" y="10" width="125" height="17" rx="4" fill="rgba(20,184,166,0.15)" stroke="rgba(20,184,166,0.45)" stroke-width=".8"/><text x="38" y="22" fill="#14b8a6" font-family="IBM Plex Mono, monospace" font-size="8" opacity="0.81">/create-knowledge</text><text x="140" y="188" text-anchor="middle" fill="rgba(20,184,166,0.6)" font-family="IBM Plex Mono, monospace" font-size="8">VECTORIZED · RAG · CONTINUOUS LEARNING</text></svg>