<svg xmlns="http://www.w3.org/2000/svg" viewBox="0 0 280 200" fill="none"><g transform="translate(140,90)"><rect x="-55" y="-55" width="110" height="110" rx="8" stroke="rgba(255,255,255,0.3)" stroke-dasharray="4 3" fill="none"/><line x1="-30" y1="-55" x2="-30" y2="-62" stroke="rgba(234,179,8,0.5)" stroke-width="2"/><line x1="-10" y1="-55" x2="-10" y2="-62" stroke="rgba(234,179,8,0.5)" stroke-width="2"/><line x1="10" y1="-55" x2="10" y2="-62" stroke="rgba(234,179,8,0.5)" stroke-width="2"/><line x1="30" y1="-55" x2="30" y2="-62" stroke="rgba(234,179,8,0.5)" stroke-width="2"/><line x1="-30" y1="55" x2="-30" y2="62" stroke="rgba(234,179,8,0.5)" stroke-width="2"/><line x1="-10" y1="55" x2="-10" y2="62" stroke="rgba(234,179,8,0.5)" stroke-width="2"/><line x1="10" y1="55" x2="10" y2="62" stroke="rgba(234,179,8,0.5)" stroke-width="2"/><line x1="30" y1="55" x2="30" y2="62" stroke="rgba(234,179,8,0.5)" stroke-width="2"/><circle cx="0" cy="0" r="38" stroke="rgba(234,179,8,0.3)" stroke-dasharray="3 2" fill="none"/><circle cx="0" cy="0" r="26" stroke="rgba(234,179,8,0.5)" fill="rgba(234,179,8,0.06)"/><circle cx="0" cy="0" r="14" stroke="rgba(234,179,8,0.7)" fill="rgba(234,179,8,0.12)"/><circle cx="0" cy="0" r="4" fill="#eab308" opacity="0.81"/><text x="0" y="-30" text-anchor="middle" fill="rgba(234,179,8,0.7)" font-family="IBM Plex Mono, monospace" font-size="5.5">EPISODIC</text><text x="0" y="-19" text-anchor="middle" fill="rgba(234,179,8,0.72)" font-family="IBM Plex Mono, monospace" font-size="5.5">WORKING</text><text x="0" y="22" text-anchor="middle" fill="rgba(234,179,8,0.74)" font-family="IBM Plex Mono, monospace" font-size="5.5">SEMANTIC</text><text x="0" y="44" text-anchor="middle" fill="rgba(234,179,8,0.6)" font-family="IBM Plex Mono, monospace" font-size="5.5">FILE MEMORY</text></g><circle cx="140" cy="90" r="4" fill="#eab308" opacity="0.64"><animate attributeName="r" values="4;14;4" dur="3s" repeatCount="indefinite"/><animate attributeName="opacity" values=".4;.05;.4" dur="3s" repeatCount="indefinite"/></circle></svg>