<svg viewBox="0 0 280 200" fill="none" xmlns="http://www.w3.org/2000/svg">
  <rect x="35" y="15" width="210" height="140" rx="6" stroke="rgba(255,255,255,0.3)" stroke-dasharray="4 3" fill="none" />
  <rect x="35" y="15" width="210" height="22" rx="6" fill="rgba(255,255,255,0.06)" stroke="rgba(255,255,255,0.21)" />
  <text x="52" y="30" fill="rgba(255,255,255,0.5)" font-family="IBM Plex Mono, monospace" font-size="8">Observability</text>
  <rect x="48" y="48" width="85" height="45" rx="3" stroke="rgba(100,116,139,0.5)" fill="rgba(100,116,139,0.06)" />
  <polyline points="55,82 62,75 70,78 78,65 86,70 94,55 102,60 110,52 118,58 126,48" stroke="#64748b" stroke-width="1.2" fill="none" stroke-linecap="round" stroke-linejoin="round" />
  <text x="52" y="44" fill="rgba(100,116,139,0.8)" font-family="IBM Plex Mono, monospace" font-size="6">TRACES / MIN</text>
  <rect x="148" y="48" width="85" height="45" rx="3" stroke="rgba(100,116,139,0.5)" fill="rgba(100,116,139,0.06)" />
  <rect x="158" y="72" width="8" height="16" rx="1" fill="rgba(100,116,139,0.5)" />
  <rect x="170" y="65" width="8" height="23" rx="1" fill="rgba(100,116,139,0.5)" />
  <rect x="182" y="58" width="8" height="30" rx="1" fill="rgba(100,116,139,0.6)" />
  <rect x="194" y="62" width="8" height="26" rx="1" fill="rgba(100,116,139,0.5)" />
  <rect x="206" y="55" width="8" height="33" rx="1" fill="#64748b" opacity="0.64" />
  <rect x="218" y="68" width="8" height="20" rx="1" fill="rgba(100,116,139,0.5)" />
  <text x="152" y="44" fill="rgba(100,116,139,0.8)" font-family="IBM Plex Mono, monospace" font-size="6">EVAL SCORES</text>
  <rect x="48" y="105" width="55" height="38" rx="3" stroke="rgba(100,116,139,0.38)" fill="rgba(100,116,139,0.04)" />
  <text x="75" y="121" text-anchor="middle" fill="#64748b" font-family="IBM Plex Mono, monospace" font-size="12" font-weight="500">99.2%</text>
  <text x="75" y="135" text-anchor="middle" fill="rgba(255,255,255,0.38)" font-family="IBM Plex Mono, monospace" font-size="5.5">UPTIME</text>
  <rect x="112" y="105" width="55" height="38" rx="3" stroke="rgba(100,116,139,0.38)" fill="rgba(100,116,139,0.04)" />
  <text x="139" y="121" text-anchor="middle" fill="#64748b" font-family="IBM Plex Mono, monospace" font-size="12" font-weight="500">4.2s</text>
  <text x="139" y="135" text-anchor="middle" fill="rgba(255,255,255,0.38)" font-family="IBM Plex Mono, monospace" font-size="5.5">AVG LATENCY</text>
  <rect x="176" y="105" width="55" height="38" rx="3" stroke="rgba(100,116,139,0.38)" fill="rgba(100,116,139,0.04)" />
  <text x="203" y="121" text-anchor="middle" fill="#64748b" font-family="IBM Plex Mono, monospace" font-size="12" font-weight="500">87%</text>
  <text x="203" y="135" text-anchor="middle" fill="rgba(255,255,255,0.38)" font-family="IBM Plex Mono, monospace" font-size="5.5">LLM JUDGE</text>
  <text x="140" y="170" text-anchor="middle" fill="rgba(100,116,139,0.6)" font-family="IBM Plex Mono, monospace" font-size="7.5">OpenTelemetry · LLM-as-Judge · Dashboards</text>
</svg>
