<svg xmlns="http://www.w3.org/2000/svg" viewBox="0 0 280 200" fill="none"><g transform="translate(140,95)"><line x1="0" y1="-55" x2="0" y2="55" stroke="rgba(56,189,248,0.6)" stroke-width="1.5"/><path d="M-2-52C-30-48-65-40-70-10L-70 45C-65 15-30 8-2 12Z" stroke="rgba(255,255,255,0.3)" stroke-dasharray="4 3" fill="rgba(56,189,248,0.06)"/><path d="M2-52C30-48 65-40 70-10L70 45C65 15 30 8 2 12Z" stroke="rgba(255,255,255,0.3)" stroke-dasharray="4 3" fill="rgba(56,189,248,0.08)"/><line x1="-55" y1="-22" x2="-12" y2="-30" stroke="rgba(56,189,248,0.38)"/><line x1="-55" y1="-10" x2="-12" y2="-18" stroke="rgba(255,255,255,0.18)"/><line x1="-55" y1="2" x2="-12" y2="-6" stroke="rgba(255,255,255,0.18)"/><line x1="-55" y1="14" x2="-12" y2="6" stroke="rgba(255,255,255,0.18)"/><circle cx="-60" cy="-22" r="3" stroke="rgba(56,189,248,0.6)" stroke-width=".8" fill="rgba(56,189,248,0.18)"/><text x="-60" y="-19.5" text-anchor="middle" fill="rgba(56,189,248,0.8)" font-family="IBM Plex Mono, monospace" font-size="4">1</text><circle cx="-60" cy="-10" r="3" stroke="rgba(56,189,248,0.5)" stroke-width=".8" fill="none"/><text x="-60" y="-7.5" text-anchor="middle" fill="rgba(56,189,248,0.7)" font-family="IBM Plex Mono, monospace" font-size="4">2</text><circle cx="-60" cy="2" r="3" stroke="rgba(56,189,248,0.38)" stroke-width=".8" fill="none"/><text x="-60" y="4.5" text-anchor="middle" fill="rgba(56,189,248,0.6)" font-family="IBM Plex Mono, monospace" font-size="4">3</text><circle cx="-60" cy="14" r="3" stroke="rgba(56,189,248,0.3)" stroke-width=".8" fill="none"/><text x="-60" y="16.5" text-anchor="middle" fill="rgba(56,189,248,0.5)" font-family="IBM Plex Mono, monospace" font-size="4">4</text><circle cx="38" cy="-8" r="16" stroke="#38bdf8" fill="rgba(56,189,248,0.12)"/><path d="M33-14L33-2L44-8Z" fill="#38bdf8" opacity="0.64" stroke="#38bdf8" stroke-width=".5"/><text x="38" y="20" text-anchor="middle" fill="rgba(56,189,248,0.64)" font-family="IBM Plex Mono, monospace" font-size="6">EXECUTE</text></g><text x="140" y="178" text-anchor="middle" fill="rgba(56,189,248,0.6)" font-family="IBM Plex Mono, monospace" font-size="8.5">325+ OPERATIONS · CRON · CHAINS</text></svg>