<svg xmlns="http://www.w3.org/2000/svg" viewBox="0 0 280 200" fill="none"><rect x="25" y="12" width="230" height="168" rx="6" stroke="rgba(255,255,255,0.24)" stroke-dasharray="4 3" fill="none"/><text x="36" y="27" fill="rgba(99,102,241,0.64)" font-family="IBM Plex Mono, monospace" font-size="7" font-weight="500">ORGANIZATION</text><text x="36" y="37" fill="rgba(255,255,255,0.3)" font-family="IBM Plex Mono, monospace" font-size="5.5">SSO · RBAC · Billing · Audit</text><rect x="38" y="46" width="204" height="92" rx="4" stroke="rgba(99,102,241,0.5)" fill="rgba(99,102,241,0.04)"/><text x="48" y="59" fill="rgba(99,102,241,0.8)" font-family="IBM Plex Mono, monospace" font-size="6.5" font-weight="500">WORKSPACE</text><text x="48" y="69" fill="rgba(255,255,255,0.3)" font-family="IBM Plex Mono, monospace" font-size="5">Knowledge · Skills · Agent Perms · Connections</text><g transform="translate(50,78)"><rect width="50" height="48" rx="3" stroke="#6366f1" stroke-width="1.2" fill="rgba(99,102,241,0.15)"/><path d="M25 10C20 16 18 20 18 24C18 28 21 32 25 32C29 32 32 28 32 24C32 20 30 16 25 10Z" stroke="#6366f1" fill="rgba(99,102,241,0.3)" opacity="0.81"/><text x="25" y="44" text-anchor="middle" fill="#6366f1" font-family="IBM Plex Mono, monospace" font-size="5.5" font-weight="500">SBX A</text></g><g transform="translate(110,78)"><rect width="50" height="48" rx="3" stroke="#6366f1" stroke-width="1.2" fill="rgba(99,102,241,0.15)"/><path d="M25 10C20 16 18 20 18 24C18 28 21 32 25 32C29 32 32 28 32 24C32 20 30 16 25 10Z" stroke="#6366f1" fill="rgba(99,102,241,0.3)" opacity="0.81"/><text x="25" y="44" text-anchor="middle" fill="#6366f1" font-family="IBM Plex Mono, monospace" font-size="5.5" font-weight="500">SBX B</text></g><g transform="translate(170,78)"><rect width="50" height="48" rx="3" stroke="#6366f1" stroke-width="1.2" fill="rgba(99,102,241,0.15)"/><path d="M25 10C20 16 18 20 18 24C18 28 21 32 25 32C29 32 32 28 32 24C32 20 30 16 25 10Z" stroke="#6366f1" fill="rgba(99,102,241,0.3)" opacity="0.81"/><text x="25" y="44" text-anchor="middle" fill="#6366f1" font-family="IBM Plex Mono, monospace" font-size="5.5" font-weight="500">SBX C</text></g><line x1="103" y1="82" x2="103" y2="122" stroke="rgba(99,102,241,0.3)" stroke-dasharray="2 3"/><line x1="163" y1="82" x2="163" y2="122" stroke="rgba(99,102,241,0.3)" stroke-dasharray="2 3"/><text x="140" y="152" text-anchor="middle" fill="rgba(255,255,255,0.3)" font-family="IBM Plex Mono, monospace" font-size="6">EPHEMERAL · NO PERSIST · AUTO-DESTROY</text><text x="140" y="188" text-anchor="middle" fill="rgba(255,255,255,0.3)" font-family="IBM Plex Mono, monospace" font-size="6">Isolated microVM · Per-Tenant VPC · Zero Peering</text></svg>