<svg xmlns="http://www.w3.org/2000/svg" viewBox="0 0 280 200" fill="none">
<g transform="translate(140,105)">
  <path d="M-50 20L0 45L50 20L0-5Z" stroke="rgba(255,255,255,0.24)" stroke-dasharray="3 2" fill="rgba(236,72,153,0.06)"/>
  <path d="M-50 20L-50 8L0-17L0-5Z" fill="rgba(236,72,153,0.11)" stroke="rgba(236,72,153,0.3)" stroke-width=".8"/>
  <path d="M50 20L50 8L0-17L0-5Z" fill="rgba(236,72,153,0.06)" stroke="rgba(236,72,153,0.24)" stroke-width=".8"/>
  <path d="M-50 8L0 33L50 8L0-17Z" fill="rgba(236,72,153,0.14)" stroke="rgba(236,72,153,0.45)" stroke-width=".8"/>
  <text x="0" y="-1" text-anchor="middle" fill="rgba(236,72,153,0.72)" font-family="IBM Plex Mono, monospace" font-size="6.5">BASE SKILL</text>
  <path d="M-38-2L0 18L38-2L0-22Z" fill="rgba(236,72,153,0.17)" stroke="rgba(236,72,153,0.44)" stroke-width=".8"/>
  <path d="M-38-2L-38-14L0-34L0-22Z" fill="rgba(236,72,153,0.11)" stroke="rgba(236,72,153,0.38)" stroke-width=".8"/>
  <path d="M38-2L38-14L0-34L0-22Z" fill="rgba(236,72,153,0.08)" stroke="rgba(236,72,153,0.3)" stroke-width=".8"/>
  <text x="0" y="-17" text-anchor="middle" fill="rgba(236,72,153,0.8)" font-family="IBM Plex Mono, monospace" font-size="6">TOOLS</text>
  <path d="M-26-22L0-8L26-22L0-36Z" fill="rgba(236,72,153,0.24)" stroke="#ec4899" stroke-width="1.2"/>
  <path d="M-26-22L-26-32L0-46L0-36Z" fill="rgba(236,72,153,0.15)" stroke="#ec4899" stroke-width=".8"/>
  <path d="M26-22L26-32L0-46L0-36Z" fill="rgba(236,72,153,0.11)" stroke="#ec4899" stroke-width=".8"/>
  <text x="0" y="-33" text-anchor="middle" fill="#ec4899" font-family="IBM Plex Mono, monospace" font-size="5.5" font-weight="500">SKILL.md</text>
</g>
<rect x="46" y="12" width="100" height="17" rx="4" fill="rgba(236,72,153,0.15)" stroke="rgba(236,72,153,0.45)" stroke-width=".8"/>
<text x="54" y="24" fill="#ec4899" font-family="IBM Plex Mono, monospace" font-size="8" opacity="0.88">/create-skill</text>
<line x1="96" y1="29" x2="118" y2="52" stroke="rgba(236,72,153,0.45)" stroke-dasharray="2 2"/>
<circle cx="118" cy="52" r="2" fill="#ec4899" opacity="0.7"/>
<text x="212" y="56" fill="rgba(255,255,255,0.45)" font-family="IBM Plex Mono, monospace" font-size="6.5">Prompts</text>
<text x="212" y="69" fill="rgba(255,255,255,0.45)" font-family="IBM Plex Mono, monospace" font-size="6.5">Guardrails</text>
<text x="212" y="82" fill="rgba(255,255,255,0.45)" font-family="IBM Plex Mono, monospace" font-size="6.5">Triggers</text>
<text x="212" y="95" fill="rgba(255,255,255,0.45)" font-family="IBM Plex Mono, monospace" font-size="6.5">Schemas</text>
</svg>
