<svg xmlns="http://www.w3.org/2000/svg" viewBox="0 0 280 200" fill="none"><g transform="translate(140,95)"><ellipse cx="0" cy="0" rx="70" ry="70" stroke="rgba(255,255,255,0.24)" stroke-dasharray="4 3" fill="none"/><ellipse cx="0" cy="0" rx="70" ry="30" stroke="rgba(255,255,255,0.18)" stroke-dasharray="3 2" fill="none"/><ellipse cx="0" cy="0" rx="30" ry="70" stroke="rgba(255,255,255,0.18)" stroke-dasharray="3 2" fill="none"/><line x1="-70" y1="0" x2="70" y2="0" stroke="rgba(255,255,255,0.12)"/><line x1="0" y1="-70" x2="0" y2="70" stroke="rgba(255,255,255,0.12)"/><circle cx="-35" cy="-25" r="5" fill="rgba(167,139,250,0.38)" stroke="#a78bfa" stroke-width="1"/><circle cx="-35" cy="-25" r="2" fill="#a78bfa" opacity="0.94"/><circle cx="25" cy="-40" r="5" fill="rgba(167,139,250,0.38)" stroke="#a78bfa" stroke-width="1"/><circle cx="25" cy="-40" r="2" fill="#a78bfa" opacity="0.94"/><circle cx="45" cy="10" r="5" fill="rgba(167,139,250,0.38)" stroke="#a78bfa" stroke-width="1"/><circle cx="45" cy="10" r="2" fill="#a78bfa" opacity="0.94"/><circle cx="-20" cy="30" r="5" fill="rgba(167,139,250,0.38)" stroke="#a78bfa" stroke-width="1"/><circle cx="-20" cy="30" r="2" fill="#a78bfa" opacity="0.94"/><circle cx="10" cy="55" r="5" fill="rgba(167,139,250,0.38)" stroke="#a78bfa" stroke-width="1"/><circle cx="10" cy="55" r="2" fill="#a78bfa" opacity="0.94"/><line x1="-35" y1="-25" x2="25" y2="-40" stroke="rgba(167,139,250,0.5)" stroke-width=".8"/><line x1="25" y1="-40" x2="45" y2="10" stroke="rgba(167,139,250,0.5)" stroke-width=".8"/><line x1="45" y1="10" x2="-20" y2="30" stroke="rgba(167,139,250,0.38)" stroke-width=".8"/><line x1="-20" y1="30" x2="10" y2="55" stroke="rgba(167,139,250,0.38)" stroke-width=".8"/><line x1="-35" y1="-25" x2="-20" y2="30" stroke="rgba(167,139,250,0.3)" stroke-width=".8" stroke-dasharray="2 2"/><line x1="25" y1="-40" x2="10" y2="55" stroke="rgba(167,139,250,0.24)" stroke-width=".8" stroke-dasharray="2 2"/></g><text x="82" y="52" fill="rgba(255,255,255,0.5)" font-family="IBM Plex Mono, monospace" font-size="6">us-east-1</text><text x="175" y="42" fill="rgba(255,255,255,0.5)" font-family="IBM Plex Mono, monospace" font-size="6">eu-west-1</text><text x="190" y="105" fill="rgba(255,255,255,0.5)" font-family="IBM Plex Mono, monospace" font-size="6">ap-south-1</text><rect x="46" y="8" width="95" height="17" rx="4" fill="rgba(167,139,250,0.15)" stroke="rgba(167,139,250,0.45)" stroke-width=".8"/><text x="54" y="20" fill="#a78bfa" font-family="IBM Plex Mono, monospace" font-size="8" opacity="0.81">/create-topo</text></svg>