<svg xmlns="http://www.w3.org/2000/svg" aria-label="Atlassian" role="img" viewBox="0 0 24 24">
  <defs>
    <clipPath id="a">
      <path fill="#fff" d="M0 0h20v20H0z"/>
    </clipPath>
  </defs>
  <g fill="#1868DB" clip-path="url(#a)" transform="matrix(1.2 0 0 1.2 1 1.003)">
    <path d="M5.682 8.832c-.288-.318-.721-.289-.923.086l-4.704 9.38c-.174.375.086.808.49.808h6.523a.53.53 0 0 0 .49-.317c1.443-2.915.578-7.33-1.876-9.957"/>
    <path d="M9.118.289C6.49 4.445 6.665 9.034 8.396 12.497c1.732 3.464 3.06 6.09 3.146 6.292a.53.53 0 0 0 .49.317h6.523c.404 0 .693-.433.49-.808 0 0-8.773-17.547-9.004-17.98-.173-.404-.664-.433-.923-.029"/>
  </g>
</svg>
