<svg xmlns="http://www.w3.org/2000/svg" aria-label="AWS" role="img" viewBox="0 0 24 24">
  <path fill="currentColor" d="M7.2 10.197q0 .408.08.653.085.24.235.528a.3.3 0 0 1 .05.17q.002.11-.137.22l-.462.307a.36.36 0 0 1-.19.067q-.11-.002-.22-.103a2.3 2.3 0 0 1-.264-.345 6 6 0 0 1-.227-.433q-.855 1.014-2.15 1.014-.924 0-1.463-.53-.54-.528-.542-1.41 0-.937.666-1.512c.447-.382 1.04-.572 1.793-.572q.371.003.775.058c.271.037.55.096.842.162v-.536q-.002-.836-.344-1.174-.35-.34-1.194-.34-.383 0-.789.098a5.5 5.5 0 0 0-.79.248 3 3 0 0 1-.256.097.4.4 0 0 1-.117.022q-.154 0-.154-.23v-.36c0-.116.014-.205.05-.255a.55.55 0 0 1 .208-.154q.382-.198.921-.33.537-.142 1.142-.139 1.303 0 1.916.594.605.594.608 1.807v2.38zM4.232 11.31q.358 0 .752-.132a1.63 1.63 0 0 0 .695-.47 1.2 1.2 0 0 0 .25-.47 2.8 2.8 0 0 0 .072-.64V9.29a6 6 0 0 0-.674-.124 6 6 0 0 0-.687-.045c-.49 0-.85.096-1.09.294q-.36.296-.358.845-.003.514.27.778.263.272.768.27m5.875.794c-.132 0-.22-.022-.278-.074-.06-.044-.11-.146-.153-.286L7.953 6.07a1.4 1.4 0 0 1-.066-.294c0-.117.06-.183.176-.183h.718q.206 0 .285.073c.06.044.103.147.147.286l1.23 4.86 1.14-4.86q.053-.22.138-.286a.5.5 0 0 1 .294-.073h.585c.14 0 .233.022.292.073.06.044.11.147.14.286l1.157 4.92 1.265-4.92a.63.63 0 0 1 .147-.286.5.5 0 0 1 .286-.073h.68c.117 0 .183.06.183.183q-.002.055-.013.118a1.4 1.4 0 0 1-.053.183l-1.764 5.675q-.066.22-.152.287a.47.47 0 0 1-.28.073h-.628q-.206 0-.293-.073c-.06-.052-.11-.147-.14-.294L12.293 7.01l-1.128 4.728q-.052.22-.137.293c-.06.053-.162.075-.293.075h-.63zm9.404.199a4.8 4.8 0 0 1-1.128-.132c-.366-.09-.65-.185-.841-.295-.117-.066-.197-.14-.227-.206a.6.6 0 0 1-.043-.205v-.374q0-.23.168-.228a.4.4 0 0 1 .132.022c.044.015.11.044.183.074.247.11.52.198.804.257.293.058.578.088.87.088q.695 0 1.069-.242a.78.78 0 0 0 .38-.7.72.72 0 0 0-.197-.511q-.198-.21-.74-.383l-1.06-.33c-.534-.17-.93-.42-1.17-.75a1.75 1.75 0 0 1-.366-1.063q0-.462.197-.816c.132-.233.308-.44.528-.602a2.3 2.3 0 0 1 .76-.38c.293-.089.6-.126.92-.126.163 0 .33.007.492.03a4.7 4.7 0 0 1 .892.2q.197.064.308.13a.7.7 0 0 1 .22.183.4.4 0 0 1 .065.242v.345q-.001.234-.168.235a.8.8 0 0 1-.278-.088 3.3 3.3 0 0 0-1.405-.286c-.416 0-.746.066-.973.207q-.343.203-.344.653 0 .31.22.52c.146.14.417.28.804.404l1.04.33q.792.253 1.134.705.338.454.336 1.03 0 .473-.19.85a1.9 1.9 0 0 1-.534.646q-.34.27-.812.412a3.4 3.4 0 0 1-1.047.154"/>
  <g fill="#F90" fill-rule="evenodd" clip-rule="evenodd">
    <path d="M20.89 15.87c-2.406 1.784-5.904 2.73-8.912 2.73-4.214 0-8.012-1.562-10.88-4.16-.227-.207-.022-.486.247-.324 3.104 1.806 6.93 2.9 10.89 2.9 2.67 0 5.604-.558 8.305-1.703.403-.183.746.264.35.558"/>
    <path d="M21.893 14.726c-.307-.395-2.034-.19-2.816-.095-.234.03-.271-.176-.06-.33 1.376-.97 3.638-.69 3.9-.367.264.33-.073 2.598-1.361 3.685-.197.169-.386.082-.3-.138.293-.73.945-2.365.637-2.754z"/>
  </g>
</svg>
