<svg xmlns="http://www.w3.org/2000/svg" aria-label="Backlog" role="img" viewBox="0 0 24 24">
  <g fill="none" fill-rule="evenodd">
    <path fill="#42CE9F" d="M18.501 23H5.5c-2.465 0-4.481-2.02-4.481-4.488V5.488C1.018 3.02 3.034 1 5.498 1h13.003c2.465 0 4.48 2.02 4.48 4.488v13.024c0 2.468-2.015 4.488-4.48 4.488"/>
    <path fill="#FFF" d="M10.302 10.47a608 608 0 0 0-.009 4.666c1.588-.086 2.375-.41 2.997-1.157.44-.53.536-1.137.269-1.71-.35-.747-1.38-1.538-3.257-1.799m-1.044 6.813a1.06 1.06 0 0 1-.752-.313c-.313-.316-.317-.617-.325-1.164-.004-.27-.006-.652-.007-1.11-.002-.802 0-1.915.005-3.308.01-2.397.027-4.786.027-4.786l2.119.015-.012 1.72c2.507.289 4.39 1.377 5.164 3.033.618 1.321.408 2.804-.56 3.968-1.494 1.795-3.615 1.945-5.66 1.945"/>
  </g>
</svg>
