<svg xmlns="http://www.w3.org/2000/svg" fill="none" viewBox="0 0 24 24">
    <g transform="scale(.24)">
        <mask id="c" fill="#fff">
            <path d="M0 36.8c0-12.881 0-19.322 2.507-24.242A23 23 0 0 1 12.558 2.507C17.478 0 23.918 0 36.8 0h26.4c12.881 0 19.322 0 24.242 2.507a23 23 0 0 1 10.051 10.051C100 17.478 100 23.918 100 36.8v26.4c0 12.881 0 19.322-2.507 24.242a23 23 0 0 1-10.051 10.051C82.522 100 76.082 100 63.2 100H36.8c-12.881 0-19.322 0-24.242-2.507A23 23 0 0 1 2.507 87.442C0 82.522 0 76.082 0 63.2z"/>
        </mask>
        <path fill="#5B63D3" d="M0 36.8c0-12.881 0-19.322 2.507-24.242A23 23 0 0 1 12.558 2.507C17.478 0 23.918 0 36.8 0h26.4c12.881 0 19.322 0 24.242 2.507a23 23 0 0 1 10.051 10.051C100 17.478 100 23.918 100 36.8v26.4c0 12.881 0 19.322-2.507 24.242a23 23 0 0 1-10.051 10.051C82.522 100 76.082 100 63.2 100H36.8c-12.881 0-19.322 0-24.242-2.507A23 23 0 0 1 2.507 87.442C0 82.522 0 76.082 0 63.2z"/>
        <path fill="url(#a)" d="M0 36.8c0-12.881 0-19.322 2.507-24.242A23 23 0 0 1 12.558 2.507C17.478 0 23.918 0 36.8 0h26.4c12.881 0 19.322 0 24.242 2.507a23 23 0 0 1 10.051 10.051C100 17.478 100 23.918 100 36.8v26.4c0 12.881 0 19.322-2.507 24.242a23 23 0 0 1-10.051 10.051C82.522 100 76.082 100 63.2 100H36.8c-12.881 0-19.322 0-24.242-2.507A23 23 0 0 1 2.507 87.442C0 82.522 0 76.082 0 63.2z"/>
        <g fill="#fff" stroke="#fff" stroke-width=".389">
            <path d="M53.329 28.204c1.728-3.547 6.738-3.639 8.595-.157l20.43 38.307c1.793 3.364-.817 7.335-4.525 7.114l-.362-.035-6.948-.888v-.001a7.19 7.19 0 0 1-5.628-4.208v-.002l-12.3-28.556-.553.301a1.33 1.33 0 0 1-.804.173c-.656-.086-1.202-.404-1.458-.963-.252-.551-.195-1.284.225-2.155l3.32-8.912.004-.01zM36.247 35.95c1.105-3.952 6.745-4.118 8.091-.24l11.56 33.311h.002c1.136 3.276-2.05 6.39-5.368 5.284l-7.238-2.412a7.11 7.11 0 0 1-4.366-4.084l-.006-.013L34.11 52.41c-.82-.055-1.633-.57-1.725-1.455-.08-.78.085-1.488.345-2.42h.001zM23.186 46.788c.339-2.941 4.572-3.042 5.05-.12l3.887 23.838c.386 2.365-2.406 3.91-4.203 2.326l-4.848-4.275a5.55 5.55 0 0 1-1.843-4.8z"/>
        </g>
        <defs>
            <linearGradient id="a" x1="56.211" x2="33.71" y1="85.714" y2="-97.426" gradientUnits="userSpaceOnUse">
                <stop stop-color="#5B63D3"/>
                <stop offset="1" stop-color="#7C87F7"/>
            </linearGradient>
        </defs>
    </g>
</svg>
