<svg xmlns="http://www.w3.org/2000/svg" aria-label="Cloudflare" role="img" viewBox="0 0 24 24">
  <path fill="#FBAD41" d="M18.445 11.357c-.053 0-.097.04-.116.09l-.31 1.078c-.135.464-.084.89.142 1.206.206.29.553.458.972.477l1.69.102c.052 0 .097.027.122.065s.033.097.02.142a.22.22 0 0 1-.188.143l-1.76.102c-.954.046-1.98.813-2.34 1.755l-.13.33a.093.093 0 0 0 .09.13h6.05a.16.16 0 0 0 .154-.117 4.345 4.345 0 0 0-4.18-5.508c-.07 0-.146 0-.216.005"/>
  <path fill="#F6821F" d="M16.135 16.44c.135-.465.085-.89-.14-1.207-.208-.29-.557-.46-.976-.478l-7.938-.102c-.053 0-.097-.027-.123-.065s-.032-.09-.02-.14a.22.22 0 0 1 .19-.143l8.01-.104c.946-.044 1.978-.813 2.34-1.753l.457-1.194a.27.27 0 0 0 .014-.154 5.216 5.216 0 0 0-10.03-.535 2.37 2.37 0 0 0-1.644-.46 2.35 2.35 0 0 0-2.038 2.916A3.33 3.33 0 0 0 1 16.356q.002.242.032.485a.16.16 0 0 0 .154.135h14.653a.2.2 0 0 0 .188-.143z"/>
</svg>
