<svg xmlns="http://www.w3.org/2000/svg" aria-label="Elasticsearch" role="img" viewBox="0 0 24 24">
  <defs>
    <circle id="g" cx="40" cy="40" r="32"/>
    <circle id="e" cx="40" cy="40" r="32"/>
    <circle id="c" cx="40" cy="40" r="32"/>
    <circle id="a" cx="40" cy="40" r="32"/>
  </defs>
  <g transform="translate(1 1)scale(.275)">
    <clipPath id="b">
      <use href="#a" overflow="visible"/>
    </clipPath>
    <path fill="#f0bf1a" d="M53.7 26H10c-1.1 0-2-.9-2-2V10c0-1.1.9-2 2-2h57c1.1 0 2 .9 2 2v.7C68.9 19.1 62.1 26 53.7 26" clip-path="url(#b)"/>
    <clipPath id="d">
      <use href="#c" overflow="visible"/>
    </clipPath>
    <path fill="#3ebeb0" d="M69.1 72H8.2V54h45.7c8.4 0 15.2 6.8 15.2 15.2z" clip-path="url(#d)"/>
    <clipPath id="f">
      <use href="#e" overflow="visible"/>
    </clipPath>
    <path fill="#07a5de" d="M50.1 49H4.8V31h45.3c5 0 9 4 9 9s-4.1 9-9 9" clip-path="url(#f)"/>
    <clipPath id="h">
      <use href="#g" overflow="visible"/>
    </clipPath>
    <path fill="#231f20" d="M36 31H6.4v18H36c.7-2.7 1.1-5.7 1.1-9s-.4-6.3-1.1-9" clip-path="url(#h)"/>
    <path fill="#d7a229" d="M23.9 12.3c-5.4 3.2-9.9 8-12.7 13.7h23.6c-2.4-5.5-6.2-10.1-10.9-13.7"/>
    <path fill="#019b8f" d="M24.9 68.2c4.6-3.7 8.3-8.6 10.6-14.2H11.2c3 6 7.8 11 13.7 14.2"/>
    <path fill="none" d="M0 0h80v80H0z"/>
  </g>
</svg>
