<svg xmlns="http://www.w3.org/2000/svg" fill="none" aria-label="Firebase" role="img" viewBox="0 0 24 24">
    <path fill="#FF9100" d="M8.557 22.42c.93.374 1.938.596 2.998.633a8.8 8.8 0 0 0 4.015-.809 12.5 12.5 0 0 1-3.914-2.458 6.7 6.7 0 0 1-3.1 2.634"/>
    <path fill="#FFC400" d="M11.656 19.786a12.48 12.48 0 0 1-3.993-9.991 6.7 6.7 0 0 0-1.44-.21 6.7 6.7 0 0 0-2.047.247 8.85 8.85 0 0 0 4.38 12.589 6.7 6.7 0 0 0 3.1-2.635"/>
    <path fill="#FF9100" d="M11.656 19.786a6.677 6.677 0 0 0-3.992-9.991q-.012.184-.02.369a12.48 12.48 0 0 0 4.012 9.622"/>
    <path fill="#DD2C00" d="M12.33.834a12.47 12.47 0 0 0-4.667 8.961 6.677 6.677 0 0 1 3.991 9.992 12.5 12.5 0 0 0 3.915 2.458 8.84 8.84 0 0 0 5.135-7.725c.078-2.236-.78-4.23-1.995-5.911-1.282-1.78-6.38-7.775-6.38-7.775"/>
</svg>
