<svg xmlns="http://www.w3.org/2000/svg" aria-label="Flespi" role="img" viewBox="0 0 24 24">
  <path fill="#F9001E" d="M21.863 2.473c.237.178.47.36.693.555l-.536.12-.347.076q-.352.08-.705.156c-3.666.808-7.378 2.163-10.06 4.918l.252.006c2.562.07 4.42.451 6.68 1.658-.38.381-.753.346-1.265.39-2.744.3-5.362 1.443-7.47 3.216l-.363.293c-2.638 2.238-4.243 5.584-4.63 9h-.417c-1.933-3.75-2.92-7.645-1.717-11.808 1.18-3.684 3.551-6.648 6.962-8.482a14.48 14.48 0 0 1 12.923-.098"/>
  <path fill="#AF001D" d="M21.863 2.473c.237.178.47.36.693.555l-.97.14-.14-.279c-1.053-.318-2.16-.32-3.25-.312l-.438-.003c-3.805.01-7.316 1.583-10.04 4.2l-.374.354-.32.338-.218.225c-2.55 2.75-3.547 6.262-3.562 9.925l-.009.515a12.4 12.4 0 0 0 .357 3.047c.1.42.175.84.242 1.266h.277L3.972 23c-1.767-1.63-2.403-5.028-2.524-7.333-.08-4.093 1.346-7.729 4.154-10.723 4.33-4.114 10.902-5.11 16.26-2.47"/>
  <path fill="#B1001D" d="M10.352 8.437q.85-.018 1.7-.026l.478-.01c1.577-.014 2.917.286 4.306 1.033l.297.154q.355.186.708.374c-.277.278-.277.278-.64.295l-.33-.017.138-.416c-3.158-.405-5.827-.266-8.599 1.387q-.275.141-.555.277c.39-.74.832-1.326 1.405-1.933l.226-.247q.287-.305.588-.594h.278z"/>
  <path fill="#920014" d="M16.732 9.546c.465.084.745.256 1.11.555l-.97.14.137-.417h-.277z"/>
</svg>
