<svg xmlns="http://www.w3.org/2000/svg" aria-label="GCP" role="img" viewBox="0 0 24 24">
  <path fill="#EA4335" d="m15.392 8.151 2.768-2.2-.486-.609a8.72 8.72 0 0 0-8.195-1.784 8.64 8.64 0 0 0-5.835 5.99c-.044.167.458-.144.68-.083l3.825-.627s.186-.18.294-.3c1.703-1.857 4.586-2.1 6.55-.52z"/>
  <path fill="#4285F4" d="M20.267 9.506a8.57 8.57 0 0 0-2.595-4.164l-2.684 2.67a4.74 4.74 0 0 1 1.75 3.76v.475a2.384 2.384 0 0 1 2.39 2.377 2.384 2.384 0 0 1-2.39 2.374l-4.778-.004-.477.05v3.678l.477.078h4.777a6.21 6.21 0 0 0 5.984-4.345 6.16 6.16 0 0 0-2.455-6.949z"/>
  <path fill="#34A853" d="M7.175 20.799h4.78v-3.805h-4.78a2.4 2.4 0 0 1-.987-.236l-.672.205-1.925 1.902-.168.656a6.23 6.23 0 0 0 3.75 1.276z"/>
  <path fill="#FBBC05" d="M7.175 8.438a6.21 6.21 0 0 0-5.853 4.207 6.18 6.18 0 0 0 2.101 6.876l2.774-2.763a2.371 2.371 0 0 1 .645-4.516 2.39 2.39 0 0 1 2.513 1.373l2.774-2.755a6.22 6.22 0 0 0-4.956-2.422z"/>
</svg>
