<svg xmlns="http://www.w3.org/2000/svg" viewBox="0 0 24 24" role="img" aria-label="GitGuardian"><defs><linearGradient id="a" x1="6.5" y1="4" x2="8.308" y2="15.721" gradientUnits="userSpaceOnUse">
<stop stop-color="white"/>
<stop offset="1" stop-color="#E0E1F9"/>
</linearGradient></defs><g transform="translate(3.0625 1) scale(1.375)"><path fill-rule="evenodd" clip-rule="evenodd" d="M7.859 0.329C8.363 -0.107 9.12 -0.112 9.625 0.328L9.627 0.329L9.629 0.331C11.124 1.662 11.332 3.277 11.289 4.253L11.912 4.715C12.468 5.118 12.8 5.769 12.8 6.456V7.286C12.8 9.948 11.755 12.581 10.016 14.149C8.695 15.34 7.532 15.998 6.401 16C5.269 15.998 4.106 15.34 2.784 14.149C1.045 12.581 0 9.948 0 7.286V6.456C0 5.769 0.332 5.118 0.89 4.713L1.512 4.252C1.466 3.309 1.64 1.702 3.17 0.332L3.174 0.328C3.679 -0.112 4.437 -0.108 4.941 0.329C5.345 0.68 5.863 0.874 6.4 0.874C6.937 0.874 7.455 0.68 7.859 0.329Z" fill="#172030"/>
<path d="M10.315 11.966C11.139 10.666 11.619 8.994 11.619 7.286V6.457C11.619 6.138 11.471 5.849 11.213 5.662L10.625 5.227C10.471 5.763 10.186 6.337 9.794 6.803C10.386 7.712 10.699 8.763 10.699 9.854C10.699 10.546 10.56 11.274 10.315 11.966Z" fill="url(#a)"/>
<path d="M6.401 14.824C6.884 14.823 7.444 14.608 8.091 14.175C9.206 13.263 10.04 11.424 10.04 9.854C10.04 8.941 9.791 8.06 9.32 7.288C8.594 7.923 7.675 8.295 6.685 8.355C7.026 9.066 7.211 9.9 7.211 10.755C7.211 12.217 6.633 13.618 5.616 14.662C5.897 14.769 6.158 14.824 6.401 14.824Z" fill="url(#a)"/>
<path d="M1.181 6.457V7.286C1.181 7.963 1.257 8.636 1.4 9.281L2.933 6.686C2.592 6.248 2.339 5.751 2.184 5.22L1.59 5.66C1.329 5.849 1.181 6.138 1.181 6.457Z" fill="url(#a)"/>
<path fill-rule="evenodd" clip-rule="evenodd" d="M6.978 4.321C6.771 4.572 6.608 4.769 6.4 4.769C6.191 4.769 6.029 4.572 5.821 4.321C5.736 4.217 5.643 4.104 5.535 3.992C4.874 3.291 4.029 3.115 3.414 3.358C2.889 3.566 2.637 4.046 2.707 4.658C2.837 5.42 3.19 6.113 3.736 6.654C4.434 7.346 5.37 7.726 6.4 7.726C7.43 7.726 8.366 7.346 9.064 6.654C9.61 6.113 9.963 5.42 10.093 4.658C10.163 4.046 9.911 3.566 9.386 3.358C8.771 3.115 7.926 3.291 7.264 3.992C7.157 4.104 7.064 4.217 6.978 4.321ZM3.748 4.868C3.748 4.503 3.979 4.207 4.265 4.207C4.55 4.207 4.781 4.503 4.781 4.868C4.781 5.233 4.55 5.529 4.265 5.529C3.979 5.529 3.748 5.233 3.748 4.868ZM6.398 5.303C6.644 5.303 6.82 5.479 6.837 5.741C6.839 5.78 6.841 5.82 6.841 5.86C6.841 6.277 6.756 6.618 6.558 6.998L6.551 7.013C6.522 7.069 6.479 7.154 6.398 7.154C6.318 7.154 6.275 7.07 6.246 7.013L6.239 6.998C6.041 6.618 5.956 6.277 5.956 5.86C5.956 5.82 5.957 5.78 5.96 5.741C5.977 5.479 6.153 5.303 6.398 5.303ZM8.703 4.351C8.933 4.383 9.133 4.549 9.201 4.765C9.239 4.885 9.207 5.003 9.121 5.066C9.037 5.127 8.918 5.12 8.804 5.047C8.597 4.916 8.401 4.928 8.168 5.085L8.149 5.098C8.106 5.128 8.047 5.17 7.984 5.17L7.982 5.17L7.98 5.17C7.927 5.169 7.88 5.15 7.845 5.115C7.793 5.065 7.762 4.973 7.83 4.863C8.056 4.499 8.382 4.307 8.703 4.351Z" fill="url(#a)"/>
<path fill-rule="evenodd" clip-rule="evenodd" d="M7.86 0.33C8.363 -0.107 9.12 -0.112 9.625 0.328L9.627 0.33L9.629 0.331C11.124 1.662 11.333 3.277 11.289 4.253L11.913 4.714C12.469 5.118 12.8 5.769 12.8 6.457V7.286C12.8 9.948 11.755 12.581 10.016 14.149C8.695 15.34 7.533 15.998 6.402 16H6.4C5.267 15.998 4.105 15.34 2.784 14.149C1.045 12.581 0 9.948 0 7.286V6.457C0 5.769 0.332 5.118 0.89 4.712L1.512 4.252C1.466 3.309 1.64 1.702 3.169 0.333L3.172 0.33L3.174 0.328C3.679 -0.112 4.437 -0.107 4.94 0.33C5.345 0.681 5.863 0.874 6.4 0.874C6.937 0.874 7.455 0.681 7.86 0.33ZM10.763 4.493L11.612 5.121C12.038 5.429 12.293 5.929 12.293 6.457V7.286C12.293 9.833 11.29 12.319 9.676 13.775C8.376 14.947 7.335 15.494 6.401 15.496C5.465 15.494 4.424 14.947 3.124 13.775C1.51 12.319 0.507 9.833 0.507 7.286V6.457C0.507 5.929 0.762 5.429 1.19 5.119L2.038 4.492C1.956 3.699 1.978 2.078 3.508 0.708C3.82 0.436 4.292 0.437 4.607 0.71C5.104 1.141 5.741 1.378 6.4 1.378C7.059 1.378 7.696 1.141 8.193 0.71C8.507 0.437 8.98 0.436 9.291 0.708C10.779 2.031 10.85 3.662 10.763 4.493Z" fill="url(#a)"/></g></svg>
