<svg xmlns="http://www.w3.org/2000/svg" aria-label="Jenkins" role="img" viewBox="0 0 24 24">
  <path fill="#ffe0b2" d="M7.16 17.227c-.275.165-4.51 2.859-4.51 3.024v.22l.77 1.98h17.156s.825-2.64.77-3.3c0-.33-2.75-2.144-2.75-2.144s2.145-2.145 2.2-6.818c0-.44 0-.88-.055-1.32-.385-5.278-3.74-7.148-7.258-7.313-3.574-.11-5.554 1.54-5.554 1.54s-2.254.77-2.474 2.584c0 0-1.76.33-.825 3.904-.714.55-.88 1.32-.88 1.87 0 .714.22 1.539.66 2.034.935.99 1.705.77 1.705.77s.33 1.76 1.045 2.969"/>
  <path fill="#f44336" d="M19.036 19.096c-.11-.715-.44-1.044-1.154-1.044h-.11c-.22.055-.55.164-1.485.824l-.55.385a1 1 0 0 0-.44-.11c-.275 0-.495.11-.714.275l-.55-.275-.935-.495c-.495-.22-.99-.385-1.375-.385-.275 0-.495.055-.714.165q-.413.33-.33.99c0 .22.055.495.055.715.11 1.155.165 1.98 1.264 2.034h.165c.605 0 1.32-.22 1.98-.714l.495-.33c.164.11.384.22.604.22.275 0 .495-.11.66-.22l.77.165c.33.055.605.11.88.11h.22c.275 0 .55 0 .824-.165q.495-.248.495-1.155c0-.275-.055-.55-.055-.77z"/>
  <path fill="#fff" d="M10.734 20.196c0-.22-.055-.44-.055-.715-.055-.33 0-.55.11-.77-2.75-.055-3.63-1.484-3.63-1.484s-.164.88.605 1.87c1.155 1.374 2.915 1.539 2.915 1.539h.11c0-.11 0-.275-.055-.44"/>
  <path fill="#546e7a" d="m11.393 22.45-.384-.77a4.5 4.5 0 0 1-.165-.604l-.055-.385-.385-.055c-.495-.11-1.705-.44-2.585-1.485-.274-.33-.44-.715-.55-1.1l-.22-.714-.604.385c-1.1.714-2.914 1.87-3.52 2.364l-.33.275.826 2.09z"/>
  <path fill="#455a64" d="M5.51 22.45h5.883l-.384-.77a4.5 4.5 0 0 1-.165-.604l-.055-.385-.385-.055c-.495-.11-1.705-.44-2.585-1.485-.055-.055-.11-.165-.165-.22l-2.804 1.87z"/>
  <path fill="#546e7a" d="M21.18 18.876c-.33-.33-1.319-1.044-1.704-1.32l-.385-.274c-.11.11-.33.385-.715.66l.385.384c.165.165.275.44.33.715v.165c.055.22.055.495.055.77 0 .935-.33 1.1-.495 1.155-.11.055-.275.11-.44.11l.055 1.1h2.255l.11-.386c.275-.88.605-2.144.66-2.694v-.275z"/>
  <path fill="#455a64" d="m20.576 22.45.11-.385c.165-.44.275-1.044.44-1.54l-2.035-1.099c0 .165.055.385.055.605 0 .935-.33 1.1-.495 1.155-.11.055-.275.11-.44.11l.055 1.1z"/>
  <path fill="#616161" d="M4.465 9.694s.055-.055 0 0l.055-.055c.275-.22.66-.385.99-.385s.495.11.66.165c.715.385.88 1.1.935 1.595v.11c.33-.11.66-.22.77-.275 0-.055 0-.165-.056-.33-.055-.22-.11-.495-.22-.77-.22-.605-.164-1.375.165-2.364l.055-.11c.055-.22.165-.44.165-.605s.055-.33.055-.385c0-.165-.055-.275-.11-.44l-.11-.275.165-.275c.495-.825 2.31-3.574 5.994-3.574h.385-.11a1.76 1.76 0 0 0-.77-.165h-.385c-2.97 0-4.784 1.265-5.114 1.485l-.055.055-.055.055c-.33.11-2.034.825-2.364 2.31l-.11.164-.22.11q-.33.165-.495.495c-.385.66-.44 1.65-.165 3.024l.055.275-.22.275-.055.055z"/>
  <path fill="#263238" d="M14.198 21.35h3.299v1.1h-3.3zM6.61 11.125c-.055-.495-.22-.935-.605-1.155-.165-.055-.275-.11-.44-.11-.275 0-.605.11-.88.495l-.385-1.1c.495-.275.935-.44 1.375-.44q.412 0 .825.165c.22.11.44.275.605.44-.11-.77.055-1.595.275-2.254.11-.275.165-.55.22-.715.054-.33 0-.385-.11-.55a11 11 0 0 0-1.925.385L5.29 5.24c.055 0 1.155-.33 2.42-.44l.384-.055.165.33s.055.055.055.11c.165.165.385.495.44 1.045 0 .11 0 .33-.055.495-.055.275-.165.495-.22.825-.22.66-.385 1.43-.165 1.979.11.33.165.66.22.88s.11.715-.11.88-1.484.55-1.484.55-.275-.22-.33-.715"/>
  <path fill="#263238" d="m8.424 5.735-.99-.44c0-.055 2.035-4.509 7.149-4.179l-.055 1.1c-4.4-.22-6.104 3.519-6.104 3.519"/>
  <path fill="#fff" d="M10.899 18.711c-2.805 0-3.74-1.484-3.74-1.484s-.164.88.605 1.87c1.155 1.374 2.915 1.539 2.915 1.539"/>
  <path fill="#263238" d="M10.624 21.186c-.055 0-1.98-.22-3.244-1.76-.935-1.21-.77-2.2-.715-2.31l.275-1.429.77 1.265c.054.055.824 1.21 3.244 1.21v1.1c-1.155 0-2.035-.22-2.695-.55v.054c.99 1.155 2.475 1.32 2.53 1.32zm7.258.714h-.165c-.99 0-1.925-.33-1.98-.33l.385-1.044s.77.275 1.54.275h.055c.275 0 .55 0 .714-.055.165-.11.165-.495.165-.715s-.055-.495-.055-.715v-.165c-.055-.44-.22-.605-.66-.605-.33.055-1.374.825-1.759 1.1l-.275.22-.66-.88.22-.165c1.045-.77 1.87-1.32 2.42-1.32.99 0 1.594.55 1.76 1.54v.165c.054.22.054.55.11.825 0 .825-.22 1.43-.77 1.65-.386.22-.716.22-1.045.22"/>
  <path fill="#263238" d="M12.163 22.78h-.165c-1.594-.11-1.704-1.374-1.76-2.53 0-.219-.054-.439-.054-.659-.11-.88.275-1.32.55-1.54.714-.494 1.814-.274 2.639.11l1.65.88-.495.99-1.65-.88c-.66-.33-1.32-.385-1.485-.22-.11.11-.11.33-.11.495.055.22.055.495.055.715.11 1.32.22 1.485.77 1.54 1.155.11 2.31-.99 2.31-1.045l.77.77c-.11.11-1.43 1.374-3.025 1.374M10.35 7.275s-.11.33-.33.33c-.11 0-.22-.22-.22-.44 0-.66.44-1.485.88-1.87.33-.275.77-.44 1.264-.44.22 0 .495 0 .715.11.275.11.44.33.44.77 0 0 0 .22-.715.22-.44 0-.99.055-1.21.275s-.55.44-.824 1.045m2.969 3.079c-.275 0-.605-.055-.88-.11a.488.488 0 0 1-.385-.66l.11-.165a.3.3 0 0 1 .275-.165h.165c.44.11 1.1.11 1.32.11-.275-1.045-.22-1.814-.055-1.814s.605 1.264.824 1.54.165.604-.054.824c-.385.33-.825.44-1.32.44m5.498 0h-.275c-.33-.055-.494-.275-.494-.605 0 0 .055-.495.33-.495.22 0 .494.11.604.11-.11-.66-.275-1.76-.11-1.76s.55 1.32 1.32 1.815c.22.165.22.495-.11.715a3.4 3.4 0 0 1-1.265.22m1.045-3.574c-.11-.44-.605-.825-1.155-.99-.714-.165-1.21.165-1.21.165 0-.495.386-.88.55-.935.22-.11.33-.165.55-.165 1.155 0 1.595.715 1.98 1.43z"/>
  <path fill="#263238" d="M16.342 13.653h-.22c-.385 0-.715-.11-.935-.385-.44-.495-.495-1.155-.33-1.265s.275.275.825.44c0 0 .385.055.495.055h.275c.715 0 1.32-.165 1.54-.33.055-.055.055-.165.055-.165s0-.165-.715-.825-.935-1.484-.935-2.199c0-.825.11-1.374.22-1.374.165 0 .33 1.759 1.485 2.749.824.715 1.044 1.21 1.044 1.704s-.275.77-.44.935c-.604.55-1.594.66-2.364.66m-.275 1.65c-1.704-.056-2.584-1.1-2.584-1.1s1.924.165 3.189.165v.934zm1.21 0v-.99c.11-.055.99.055 1.98-.33-.22 1.154-1.925 1.32-1.98 1.32m-2.475 1.649c-1.21 0-1.814-.33-2.254-1.76 0 0-.055-.11.11-.165s.22.055.22.055c.22.605 1.155.77 2.31.77h1.814s-.22 1.1-1.375 1.1z"/>
  <path fill="#263238" d="M14.747 19.151c-1.759 0-3.134-.55-4.618-2.144-.825-.88-.825-2.035-.715-2.145s.275.66.935 1.375c1.32 1.43 3.189 1.87 4.783 1.76 2.09-.165 2.97-1.375 3.134-1.485l.935.66c-.055.055-1.32 1.704-3.959 1.924-.22.055-.33.055-.495.055M6.17 14.752l-.055-.55-.055-.55s.11-.054.33-.22q.247-.164.495 0l.275.22a.43.43 0 0 1 0 .606c-.495.44-.935.494-.99.494m-.22-3.299.88.33c-.055-.22-.33-1.21-1.1-1.43-.22-.054-.605.11-.66.496v.22c.055.934.88 1.484.88 1.484z"/>
  <path fill="#263238" d="M15.297 21.9c-.934 0-1.65-.714-1.65-1.65s.716-1.649 1.65-1.649 1.65.715 1.65 1.65-.715 1.65-1.65 1.65m0-2.2c-.275 0-.55.22-.55.55s.22.55.55.55.55-.22.55-.55-.22-.55-.55-.55"/>
  <path fill="#263238" d="M20.576 23H3.42c-.22 0-.44-.11-.495-.33l-.77-1.924c-.055-.165-.055-.22-.055-.33v-.22c.055-.55 3.134-2.474 4.344-3.19-.385-.824-.66-1.704-.77-2.254-.44-.055-.99-.274-1.65-.934-.604-.605-.824-1.65-.824-2.365 0-.494.11-1.32.77-2.034-.33-1.485-.275-2.64.22-3.409.22-.385.494-.55.714-.715.44-1.704 2.255-2.474 2.695-2.694.44-.33 2.474-1.705 5.883-1.595 4.619.165 7.478 3.025 7.808 7.808.055.44.055.88.055 1.32 0 3.574-1.265 5.773-1.925 6.653 2.474 1.704 2.474 1.98 2.474 2.254.055.715-.604 2.86-.824 3.52-.055.274-.275.44-.495.44m-16.77-1.1h16.33c.33-1.045.605-2.145.66-2.585-.33-.33-1.485-1.21-2.53-1.87-.11-.11-.22-.22-.22-.384s.056-.33.165-.44c0 0 1.98-2.034 2.035-6.433 0-.385 0-.825-.055-1.265-.385-5.718-4.399-6.708-6.763-6.818-3.3-.11-5.169 1.375-5.224 1.43s-.11.055-.165.11c0 0-1.924.66-2.089 2.144-.055.22-.22.44-.44.495-.385.11-.99.935-.385 3.244.055.22 0 .44-.165.55-.55.44-.605 1.1-.605 1.43 0 .66.22 1.319.55 1.649.66.715 1.155.605 1.155.605.165-.055.33 0 .44.055.11.11.22.22.22.385 0 0 .275 1.704.99 2.804.054.11.11.275.054.44s-.11.275-.274.33c-.385.22-3.464 2.199-4.234 2.749zm17.045-2.53"/>
</svg>
