<svg xmlns="http://www.w3.org/2000/svg" aria-label="Kafka" role="img" viewBox="0 0 24 24">
  <path fill="currentColor" d="M9.9 2.958a1.31 1.31 0 0 0-1.877 0h-.006a1.36 1.36 0 0 0-.386.955c0 .376.148.712.387.953l.006.006c.236.242.565.39.934.39s.703-.148.942-.39l.003-.006c.239-.24.386-.577.386-.953 0-.374-.146-.712-.386-.955zm-.942 18.48c.37 0 .703-.154.942-.394l.003-.007c.239-.24.386-.579.386-.95 0-.376-.146-.713-.386-.957H9.9a1.3 1.3 0 0 0-.942-.396 1.28 1.28 0 0 0-.935.396h-.006a1.36 1.36 0 0 0-.387.957c0 .372.148.71.387.95l.006.007c.237.24.566.393.935.393m7.233-4.09c.329-.088.626-.303.808-.627l.025-.048a1.35 1.35 0 0 0 .105-.978 1.33 1.33 0 0 0-.62-.821l-.018-.013a1.3 1.3 0 0 0-.988-.121 1.3 1.3 0 0 0-.808.629 1.37 1.37 0 0 0-.134 1.026c.09.332.303.633.619.82h.002c.317.187.675.22 1.009.133m-5.871-6.73a1.9 1.9 0 0 0-1.362-.575c-.531 0-1.01.222-1.358.575a1.99 1.99 0 0 0-.001 2.769 1.907 1.907 0 0 0 2.72 0c.348-.357.562-.846.562-1.388s-.214-1.028-.561-1.381m-.766-2.301c.773.13 1.467.506 1.997 1.049h.003c.085.085.167.18.243.274l1.326-.78A2.93 2.93 0 0 1 13.08 7.2a2.9 2.9 0 0 1 1.334-1.765l.023-.015a2.8 2.8 0 0 1 2.15-.28 2.87 2.87 0 0 1 1.74 1.358V6.5a2.95 2.95 0 0 1 .287 2.207 2.9 2.9 0 0 1-1.335 1.768l-.181.108h-.019a2.84 2.84 0 0 1-1.974.184 2.87 2.87 0 0 1-1.388-.865l-1.324.777a3.8 3.8 0 0 1 0 2.64l1.324.775a2.8 2.8 0 0 1 1.388-.866 2.8 2.8 0 0 1 2.173.293l.044.02v.003a2.9 2.9 0 0 1 1.29 1.747 2.95 2.95 0 0 1-.286 2.204l-.024.049-.003-.005a2.9 2.9 0 0 1-1.711 1.317 2.84 2.84 0 0 1-2.174-.292v-.005a2.9 2.9 0 0 1-1.334-1.767 2.93 2.93 0 0 1 .043-1.654l-1.326-.778a4 4 0 0 1-.243.27l-.003.004a3.6 3.6 0 0 1-1.997 1.044v1.557a2.84 2.84 0 0 1 1.43.79l.002.004a2.92 2.92 0 0 1 .838 2.056c0 .8-.32 1.525-.838 2.052l-.002.009A2.84 2.84 0 0 1 8.958 23a2.84 2.84 0 0 1-2.022-.852h-.002v-.009a2.93 2.93 0 0 1-.84-2.052c0-.802.322-1.533.84-2.056v-.004h.002a2.84 2.84 0 0 1 1.428-.79V15.68a3.6 3.6 0 0 1-1.994-1.044l-.006-.004a3.76 3.76 0 0 1-1.075-2.635c0-1.028.414-1.958 1.075-2.632h.006a3.62 3.62 0 0 1 1.994-1.05v-1.55a2.9 2.9 0 0 1-1.428-.792h-.002v-.004a2.93 2.93 0 0 1-.84-2.056c0-.798.322-1.53.84-2.056l.002-.002A2.82 2.82 0 0 1 8.958 1c.79 0 1.505.325 2.026.854v.002h.002a2.93 2.93 0 0 1 .838 2.056c0 .803-.32 1.528-.838 2.056l-.002.005a2.9 2.9 0 0 1-1.43.792zM17 7.28l-.011-.017a1.33 1.33 0 0 0-.798-.613 1.3 1.3 0 0 0-1.011.134h.002a1.34 1.34 0 0 0-.62.821 1.37 1.37 0 0 0 .133 1.026l.006.008c.184.319.476.531.802.617a1.28 1.28 0 0 0 1.006-.132l.018-.008a1.35 1.35 0 0 0 .602-.811 1.38 1.38 0 0 0-.13-1.025"/>
</svg>
