<svg xmlns="http://www.w3.org/2000/svg" aria-label="Keycloak" role="img" viewBox="0 0 24 24">
  <path fill="#4d4d4d" d="m3.883 6.994 2.844-4.91h11.454l2.828 4.957.004 9.917-2.832 4.955-11.45.004-2.876-4.958z"/>
  <path fill="#ededed" d="M3.855 16.957h5.162l-2.835-4.996 2.305-4.966-4.603-.001L1 12.002"/>
  <path fill="#e0e0e0" d="M10.582 16.957h3.773l3.336-4.862-3.278-5.054H9.975l-2.673 4.883z"/>
  <path fill="#acacac" d="m1 12.001 2.855 4.958h5.162l-2.804-4.941z"/>
  <path fill="#9e9e9e" d="m7.356 12.002 3.227 4.957h3.772l3.284-4.955z"/>
  <path fill="#00b8e3" d="m8.634 12.005-.974.283-.935-.284 3.815-6.613.955 1.651"/>
  <path fill="#33c6e9" d="m11.49 16.957-.949 1.658-2.534-2.73-1.284-3.88v-.001h1.91"/>
  <path fill="#008aaa" d="M6.726 12.004h-.002v.001l-.954 1.653-.958-1.645.972-1.685 2.85-4.936h1.907"/>
  <path fill="#d4d4d4" d="M17.222 16.957H23l-.003-9.916h-5.775z"/>
  <path fill="#919191" d="M17.222 12.017v4.941h5.768v-4.94z"/>
  <path fill="#00b8e3" d="M10.542 18.617H8.633l-2.863-4.96.954-1.651z"/>
  <path fill="#008aaa" d="m18.175 12.004-3.816 6.612c-.35-.516-.951-1.657-.951-1.657l2.862-4.956z"/>
  <path fill="#00b8e3" d="M16.265 18.616H14.36l3.817-6.612.953-1.651.956 1.662m-1.91-.011h-1.904l-2.864-4.962.948-1.649 2.318 2.947z"/>
  <path fill="#33c6e9" d="M19.129 10.352v.001l-.954 1.651-3.82-6.61h1.912z"/>
</svg>
