<svg role="img" xmlns="http://www.w3.org/2000/svg" aria-label="Kong Konnect" viewBox="0 0 24 24">
    <g fill="#cf0">
        <path d="m7.922 18.965-.58.737 1.317 2.07-.141.957h5.584l.392-.956-2.243-2.808zm3.043-12.596L8.94 9.929l9.867 11.734-.283 1.082h4.518l.816-3.812-10.541-12.58h-2.353Z"/>
        <path d="m12.314 3.686-.957 1.773h2.384l4.094 4.894 2.432-2.008v-1.27l-.847-1.193.627-.658-4.878-3.875zM4.973 13.6H3.639L.125 18.086v4.643H3.89l.659-.862 2.902-3.78h4.204l1.302-1.993-4.565-5.443-3.435 2.965Z"/>
    </g>
</svg>
