<svg xmlns="http://www.w3.org/2000/svg" aria-label="Kubernetes" role="img" viewBox="0 0 24 24">
  <path fill="#326ce5" d="M13.913 13.457a.3.3 0 0 0-.085-.007.4.4 0 0 0-.14.037.37.37 0 0 0-.18.48l-.003.004.848 2.05a4.33 4.33 0 0 0 1.75-2.2l-2.185-.369zm-3.4.29a.37.37 0 0 0-.355-.288.4.4 0 0 0-.073.007l-.004-.005-2.166.37a4.35 4.35 0 0 0 1.744 2.18l.84-2.028-.007-.008a.36.36 0 0 0 .02-.23m1.815.798a.37.37 0 0 0-.652 0l-1.068 1.927a4.34 4.34 0 0 0 2.37.122q.218-.05.426-.12l-1.067-1.93zm3.373-4.476-1.64 1.466v.005a.37.37 0 0 0 .147.638l.002.008 2.122.612a4.4 4.4 0 0 0-.63-2.73m-3.046.165a.37.37 0 0 0 .588.283l.006.002 1.794-1.27a4.37 4.37 0 0 0-2.515-1.213l.125 2.198zm-1.9.29a.37.37 0 0 0 .587-.283l.01-.004.124-2.2a4 4 0 0 0-.448.076 4.33 4.33 0 0 0-2.082 1.134l1.805 1.28zm-.963 1.664a.37.37 0 0 0 .146-.637l.002-.01-1.65-1.472a4.3 4.3 0 0 0-.612 2.736l2.113-.61zm1.602.648.608.29.606-.29.15-.655-.42-.524h-.673l-.42.524z"/>
  <path fill="#326ce5" d="m22.05 14.123-1.73-7.526a1.35 1.35 0 0 0-.724-.902L12.58 2.347a1.35 1.35 0 0 0-1.165 0l-7.01 3.35a1.35 1.35 0 0 0-.726.9l-1.73 7.53a1.35 1.35 0 0 0 0 .576 1 1 0 0 0 .05.17 1.3 1.3 0 0 0 .132.272q.036.055.076.106l4.854 6.034q.03.04.068.075a1.4 1.4 0 0 0 .255.212 1.4 1.4 0 0 0 .384.167 1.4 1.4 0 0 0 .34.046h7.784a1 1 0 0 0 .14-.01 1.4 1.4 0 0 0 .198-.036 1 1 0 0 0 .137-.045q.054-.018.104-.043a1 1 0 0 0 .147-.082 1.4 1.4 0 0 0 .323-.284l.147-.184 4.704-5.85a1.4 1.4 0 0 0 .21-.378 1 1 0 0 0 .05-.172 1.35 1.35 0 0 0 0-.577zm-7.27 2.926a2 2 0 0 0 .07.17.33.33 0 0 0-.033.247 4 4 0 0 0 .37.666 3 3 0 0 1 .226.335c.018.03.04.08.055.113a.421.421 0 1 1-.76.36l-.05-.109a3 3 0 0 1-.12-.385 4 4 0 0 0-.29-.705.33.33 0 0 0-.214-.13c-.013-.023-.062-.114-.09-.16a5.43 5.43 0 0 1-3.873-.01l-.096.171a.34.34 0 0 0-.18.088 3 3 0 0 0-.325.753 3 3 0 0 1-.122.385c-.013.03-.036.074-.052.107v.002a.421.421 0 1 1-.758-.36c.016-.033.037-.082.054-.113a3 3 0 0 1 .224-.335 4 4 0 0 0 .38-.683.4.4 0 0 0-.036-.237l.076-.183a5.46 5.46 0 0 1-2.42-3.02l-.184.03a.47.47 0 0 0-.24-.085 4 4 0 0 0-.732.215 3 3 0 0 1-.376.144c-.032.01-.075.017-.11.024l-.007.003H5.16a.421.421 0 1 1-.186-.817h.006l.004-.002c.034-.008.08-.02.11-.026a3 3 0 0 1 .404-.033 4 4 0 0 0 .753-.123.6.6 0 0 0 .18-.182l.176-.052a5.43 5.43 0 0 1 .856-3.787l-.135-.12a.47.47 0 0 0-.083-.242 4 4 0 0 0-.625-.438 3 3 0 0 1-.348-.203l-.087-.07-.006-.005a.447.447 0 0 1-.104-.62.4.4 0 0 1 .335-.147.5.5 0 0 1 .292.11l.094.074a3 3 0 0 1 .276.294 4 4 0 0 0 .566.51.33.33 0 0 0 .25.025q.074.055.15.108a5.4 5.4 0 0 1 2.743-1.567 5 5 0 0 1 .76-.116l.01-.177a.46.46 0 0 0 .135-.218 4 4 0 0 0-.046-.76 3 3 0 0 1-.058-.4v-.12a.422.422 0 1 1 .84 0c0 .038.002.086 0 .12a3 3 0 0 1-.057.4 4 4 0 0 0-.048.76.33.33 0 0 0 .137.21l.01.187a5.5 5.5 0 0 1 3.485 1.684l.16-.115a.47.47 0 0 0 .254-.027 4 4 0 0 0 .565-.513 3 3 0 0 1 .277-.293c.026-.02.064-.052.094-.073a.422.422 0 1 1 .523.656c-.03.022-.066.054-.094.074a3 3 0 0 1-.348.203 4 4 0 0 0-.624.44.33.33 0 0 0-.078.236l-.15.134a5.45 5.45 0 0 1 .875 3.778l.17.05a.47.47 0 0 0 .18.182 4 4 0 0 0 .753.123 3 3 0 0 1 .4.03l.124.03a.421.421 0 1 1-.187.82h-.005l-.01-.005c-.034-.007-.077-.015-.108-.023a3 3 0 0 1-.375-.146 4 4 0 0 0-.732-.215.33.33 0 0 0-.235.088l-.18-.032a5.46 5.46 0 0 1-2.42 3.043"/>
  <path fill="#fff" d="m22.968 14.316-1.89-8.21a1.48 1.48 0 0 0-.79-.984l-7.654-3.654a1.48 1.48 0 0 0-1.27 0l-7.65 3.656a1.48 1.48 0 0 0-.79.984l-1.888 8.21a1.46 1.46 0 0 0 .198 1.113q.04.06.083.114l5.296 6.585a1.49 1.49 0 0 0 1.144.546l8.49-.002a1.49 1.49 0 0 0 1.144-.545l5.294-6.585a1.46 1.46 0 0 0 .28-1.228zm-.915.385a1 1 0 0 1-.05.17 1.4 1.4 0 0 1-.21.377l-4.703 5.853-.148.184a1.4 1.4 0 0 1-.323.285 1 1 0 0 1-.145.08q-.052.025-.104.044a1 1 0 0 1-.138.045 1.4 1.4 0 0 1-.198.037 1 1 0 0 1-.14.008l-7.708.002h-.075a1.4 1.4 0 0 1-.34-.046 1.4 1.4 0 0 1-.385-.168 1.4 1.4 0 0 1-.255-.212q-.036-.035-.068-.075L2.21 15.25q-.04-.052-.077-.106a1.3 1.3 0 0 1-.133-.27 1 1 0 0 1-.049-.172 1.35 1.35 0 0 1 0-.577l1.73-7.527a1.35 1.35 0 0 1 .726-.9l7.01-3.35a1.35 1.35 0 0 1 1.166 0l7.012 3.348a1.35 1.35 0 0 1 .726.9l1.732 7.527a1.35 1.35 0 0 1 0 .578"/>
  <path fill="#fff" d="M19.03 13.52c-.036-.008-.087-.022-.122-.028a3 3 0 0 0-.402-.033 4 4 0 0 1-.753-.123.47.47 0 0 1-.18-.182l-.17-.05a5.45 5.45 0 0 0-.874-3.778l.15-.133a.33.33 0 0 1 .077-.238 4 4 0 0 1 .624-.44 3 3 0 0 0 .35-.202l.092-.074a.422.422 0 1 0-.523-.656c-.03.02-.068.052-.094.073a3 3 0 0 0-.277.294 4 4 0 0 1-.565.512.47.47 0 0 1-.255.027l-.16.115a5.5 5.5 0 0 0-3.483-1.683l-.01-.187a.33.33 0 0 1-.137-.21 4 4 0 0 1 .047-.762 3 3 0 0 0 .057-.4c.002-.032 0-.082 0-.12a.422.422 0 1 0-.84 0v.12a3 3 0 0 0 .058.4 4 4 0 0 1 .047.76.46.46 0 0 1-.137.22l-.01.176a5 5 0 0 0-.76.116 5.4 5.4 0 0 0-2.74 1.57l-.152-.11a.33.33 0 0 1-.25-.024 4 4 0 0 1-.565-.51 3 3 0 0 0-.276-.294l-.094-.074a.5.5 0 0 0-.29-.11.4.4 0 0 0-.336.147.447.447 0 0 0 .103.62l.006.003c.027.023.062.052.087.07a3 3 0 0 0 .348.204 4 4 0 0 1 .624.438.47.47 0 0 1 .084.243l.135.12a5.43 5.43 0 0 0-.857 3.786l-.175.052a.6.6 0 0 1-.18.18 4 4 0 0 1-.753.126 3 3 0 0 0-.403.03l-.11.028h-.005l-.006.002a.421.421 0 1 0 .187.82l.006-.003.007-.003c.035-.007.078-.015.11-.024a3 3 0 0 0 .376-.144 4 4 0 0 1 .73-.215.47.47 0 0 1 .242.085l.184-.03a5.46 5.46 0 0 0 2.42 3.02l-.076.183a.4.4 0 0 1 .037.237 4 4 0 0 1-.38.683 3 3 0 0 0-.225.335c-.017.03-.038.08-.054.114a.421.421 0 1 0 .758.36v-.003c.017-.033.04-.076.052-.107a3 3 0 0 0 .122-.385 3 3 0 0 1 .324-.753.34.34 0 0 1 .18-.088l.097-.173a5.43 5.43 0 0 0 3.873.01l.09.162a.33.33 0 0 1 .214.13 4 4 0 0 1 .288.706 3 3 0 0 0 .122.385l.052.107a.421.421 0 1 0 .76-.36l-.056-.112a3 3 0 0 0-.226-.334 4 4 0 0 1-.372-.666.33.33 0 0 1 .032-.248 2 2 0 0 1-.07-.17 5.46 5.46 0 0 0 2.42-3.043c.054.01.148.025.18.032a.33.33 0 0 1 .235-.088 4 4 0 0 1 .73.215 3 3 0 0 0 .377.146c.03.008.074.016.11.023l.008.003h.005a.421.421 0 1 0 .187-.816m-3.987-4.276-1.794 1.27-.006-.002a.37.37 0 0 1-.588-.28l-.002-.003-.125-2.197a4.37 4.37 0 0 1 2.515 1.212m-3.38 2.41h.677l.42.525-.15.654-.608.29-.608-.29-.15-.655zM11.03 8.11a4 4 0 0 1 .447-.077l-.125 2.2-.01.005a.37.37 0 0 1-.586.283l-.003.002-1.806-1.28A4.33 4.33 0 0 1 11.03 8.11m-2.74 1.956 1.65 1.475-.002.008a.37.37 0 0 1-.146.637v.008l-2.113.61a4.3 4.3 0 0 1 .613-2.737m2.207 3.918-.84 2.027a4.35 4.35 0 0 1-1.743-2.182l2.166-.368.004.005a.4.4 0 0 1 .073-.007.37.37 0 0 1 .334.516zm2.478 2.607a4.34 4.34 0 0 1-2.37-.12l1.068-1.928a.37.37 0 0 1 .653 0h.01l1.067 1.93q-.208.07-.427.12zm1.377-.572-.848-2.05.003-.002a.37.37 0 0 1 .18-.48.4.4 0 0 1 .14-.036.3.3 0 0 1 .085.006l.005-.005 2.185.37a4.33 4.33 0 0 1-1.75 2.198m1.98-3.224-2.124-.61-.002-.01a.37.37 0 0 1-.146-.636v-.005l1.64-1.466a4.4 4.4 0 0 1 .63 2.728"/>
</svg>
