<svg xmlns="http://www.w3.org/2000/svg" fill="currentColor" aria-label="MCP" role="img" viewBox="0 0 24 24">
  <path d="M15.38 3.202a2.374 2.374 0 0 0-3.309 0l-8.823 8.653a.79.79 0 0 1-1.103 0 .754.754 0 0 1 0-1.082l8.824-8.653a3.954 3.954 0 0 1 5.514 0 3.78 3.78 0 0 1 1.104 3.245 3.94 3.94 0 0 1 3.308 1.082l.046.046a3.77 3.77 0 0 1 0 5.408l-7.98 7.825a.25.25 0 0 0 0 .36l1.639 1.608a.754.754 0 0 1 0 1.082.79.79 0 0 1-1.103 0l-1.64-1.607a1.76 1.76 0 0 1 0-2.524l7.981-7.827a2.264 2.264 0 0 0 0-3.245l-.046-.045a2.374 2.374 0 0 0-3.306-.002l-6.574 6.447-.002.002-.09.09a.79.79 0 0 1-1.104 0 .754.754 0 0 1 0-1.083l6.667-6.538a2.264 2.264 0 0 0-.002-3.242"/>
  <path d="M14.278 5.365a.754.754 0 0 0 0-1.082.79.79 0 0 0-1.104 0l-6.526 6.4a3.77 3.77 0 0 0 0 5.409 3.954 3.954 0 0 0 5.515 0l6.527-6.4a.754.754 0 0 0 0-1.082.79.79 0 0 0-1.104 0l-6.526 6.4a2.374 2.374 0 0 1-3.309 0 2.264 2.264 0 0 1 0-3.245z"/>
</svg>
