<svg xmlns="http://www.w3.org/2000/svg" aria-label="MySQL" role="img" viewBox="0 0 24 24">
  <path fill="#00678c" fill-rule="evenodd" d="M21.263 17.87c-1.196-.033-2.124.09-2.902.417-.224.09-.585.09-.614.373.12.117.135.312.24.475.179.298.493.699.778.907l.957.684c.585.357 1.242.566 1.81.922.33.208.66.476.989.7.167.118.269.312.479.387v-.046c-.105-.133-.135-.327-.24-.476l-.45-.43a7 7 0 0 0-1.555-1.502c-.48-.328-1.526-.774-1.721-1.324l-.03-.033c.329-.034.718-.15 1.033-.24.51-.132.973-.103 1.495-.237l.72-.208v-.133c-.27-.268-.464-.625-.748-.877a20 20 0 0 0-2.47-1.83c-.464-.297-1.063-.49-1.556-.743-.18-.09-.48-.134-.584-.283-.27-.326-.42-.758-.613-1.145l-1.228-2.588c-.27-.58-.434-1.16-.763-1.695-1.541-2.528-3.217-4.06-5.791-5.562-.554-.312-1.212-.447-1.912-.61l-1.122-.06c-.241-.104-.48-.388-.69-.52-.852-.536-3.052-1.696-3.681-.168-.404.967.6 1.919.94 2.41.254.342.583.729.763 1.115.1.253.134.52.24.788.238.655.464 1.384.777 1.995.168.31.344.639.554.92.12.168.33.239.374.506-.21.299-.224.744-.344 1.116-.54 1.68-.33 3.763.434 5 .24.372.805 1.19 1.57.877.675-.267.525-1.114.719-1.86.045-.177.015-.295.105-.415v.034l.613 1.234c.465.728 1.273 1.487 1.946 1.993.359.268.643.73 1.092.892v-.045h-.03c-.09-.133-.224-.193-.344-.297a7 7 0 0 1-.778-.893 19 19 0 0 1-1.676-2.706c-.24-.461-.45-.966-.643-1.427-.09-.18-.09-.447-.24-.536-.224.327-.553.61-.72 1.01-.283.64-.313 1.429-.418 2.247-.06.015-.033 0-.06.034-.478-.12-.643-.61-.822-1.027-.45-1.056-.525-2.75-.135-3.97.105-.313.554-1.295.375-1.592-.092-.283-.39-.446-.555-.67a6 6 0 0 1-.538-.95c-.36-.834-.54-1.756-.928-2.59-.18-.385-.494-.787-.748-1.143-.284-.403-.598-.686-.823-1.16-.075-.168-.18-.432-.06-.611.03-.119.09-.167.21-.193.193-.167.747.044.942.133.554.223 1.018.431 1.48.743.21.149.436.432.706.506h.314c.478.104 1.017.034 1.465.167a9.7 9.7 0 0 1 2.156 1.026 13.24 13.24 0 0 1 4.669 5.087c.18.342.254.655.419 1.012.315.729.704 1.472 1.017 2.186.314.7.614 1.413 1.063 1.994.224.312 1.122.475 1.526.64.3.132.763.253 1.033.416.509.312 1.018.669 1.495 1.01.24.179.989.55 1.034.847zM6.003 4.948a2.378 2.364 0 0 0-.612.074v.034h.029c.12.237.33.4.479.61l.344.713.03-.033c.21-.148.315-.386.315-.743-.09-.104-.105-.208-.18-.312-.09-.15-.284-.224-.404-.342z"/>
</svg>
