<svg xmlns="http://www.w3.org/2000/svg" aria-label="PostgreSQL" role="img" viewBox="0 0 24 24">
  <g fill="none" stroke="#fff">
    <path fill="#000" stroke="#000" stroke-width="2.01" d="M17.744 17.456c.152-1.269.106-1.454 1.05-1.25l.241.022c.727.033 1.677-.117 2.245-.376 1.201-.557 1.914-1.488.73-1.243-2.704.557-2.9-.359-2.9-.359 2.855-4.236 4.05-9.613 3.018-10.93-2.81-3.59-7.673-1.892-7.755-1.847l-.026.005a9.3 9.3 0 0 0-1.805-.187c-1.223-.02-2.15.32-2.856.854 0 0-8.676-3.574-8.273 4.496.086 1.717 2.46 12.999 5.294 9.585a53 53 0 0 1 2.037-2.301 2.63 2.63 0 0 0 1.716.438l.048-.042a2 2 0 0 0 .02.485c-.73.815-.515.958-1.973 1.259-1.476.304-.608.845-.043.987.686.172 2.274.415 3.348-1.086l-.043.17c.286.23.266 1.647.308 2.658s.109 1.958.315 2.514.45 1.992 2.366 1.59c1.602-.343 2.827-.838 2.94-5.433"/>
    <path fill="#336791" stroke="none" d="M22 14.617c-2.702.557-2.898-.358-2.898-.358 2.855-4.237 4.049-9.614 3.018-10.93-2.809-3.59-7.673-1.892-7.754-1.848l-.026.005a9.6 9.6 0 0 0-1.804-.188c-1.224-.019-2.151.32-2.856.855 0 0-8.677-3.575-8.273 4.495.086 1.717 2.46 13 5.293 9.586a53 53 0 0 1 2.044-2.309 2.63 2.63 0 0 0 1.716.438l.048-.042a2 2 0 0 0 .02.485c-.73.815-.515.958-1.973 1.259-1.476.304-.608.845-.043.987.686.172 2.274.415 3.348-1.086l-.043.17c.286.23.486 1.49.452 2.633s-.056 1.927.168 2.54.45 1.992 2.367 1.59c1.601-.343 2.431-1.234 2.548-2.718.082-1.055.267-.9.28-1.842l.15-.447c.171-1.43.028-1.892 1.015-1.677l.24.022c.727.032 1.678-.117 2.235-.376 1.202-.558 1.915-1.489.73-1.244z"/>
    <g stroke-width=".67">
      <g stroke-linecap="round">
        <path stroke-linejoin="round" d="M11.975 15.428c-.075 2.661.018 5.342.278 5.985s.819 1.917 2.737 1.508c1.602-.344 2.185-1.009 2.438-2.476l.592-4.692M9.676 2.085s-8.682-3.55-8.278 4.52c.086 1.717 2.46 13 5.293 9.586a46 46 0 0 1 1.97-2.222m5.704-12.532c-.3.094 4.83-1.875 7.745 1.85 1.029 1.316-.163 6.693-3.019 10.93"/>
        <path stroke-linejoin="bevel" d="M19.092 14.215s.187.916 2.9.357c1.184-.245.47.687-.73 1.244-.986.458-3.197.575-3.233-.056-.094-1.632 1.163-1.136 1.073-1.545-.083-.369-.646-.73-1.016-1.631-.324-.786-4.451-6.818 1.145-5.923.205-.042-1.46-5.33-6.696-5.407S7.463 7.693 7.463 7.693"/>
      </g>
      <g stroke-linejoin="round">
        <path d="M10.51 14.774c-.73.816-.515.959-1.974 1.259-1.476.304-.608.845-.043.987.686.173 2.274.416 3.348-1.087.327-.458-.002-1.188-.45-1.373-.218-.09-.508-.202-.88.215z"/>
        <path stroke-linecap="round" d="M10.461 14.76c-.074-.48.158-1.05.405-1.717.373-1 1.231-2.001.545-5.178-.512-2.366-3.947-.493-3.947-.172s.155 1.627-.056 3.147c-.278 1.984 1.263 3.662 3.036 3.49"/>
      </g>
    </g>
    <g fill="#fff">
      <path stroke-width=".224" d="M9.644 7.645c-.016.11.201.402.483.442s.521-.19.537-.3-.2-.23-.482-.269-.524.019-.538.127z"/>
      <path stroke-width=".111" d="M18.214 7.422c.015.109-.2.402-.482.441s-.524-.189-.538-.3.2-.23.482-.269.524.02.538.128z"/>
    </g>
    <path stroke-linecap="round" stroke-linejoin="round" stroke-width=".67" d="M19.22 6.663c.047.86-.185 1.445-.215 2.36-.043 1.33.634 2.853-.386 4.377"/>
  </g>
</svg>
