<svg xmlns="http://www.w3.org/2000/svg" aria-label="Prometheus" role="img" viewBox="0 0 24 24">
  <path fill="#E6522C" d="M12 0C5.373 0 0 5.372 0 12c0 6.627 5.373 12 12 12s12-5.373 12-12C24 5.372 18.627 0 12 0zm0 22.453c-1.562 0-2.828-1.107-2.828-2.472h5.656c0 1.365-1.265 2.472-2.828 2.472zm4.671-3.291H7.328v-1.692h9.343v1.692zm-.034-2.554H7.357c-.031-.036-.064-.07-.094-.108-.962-1.169-1.189-1.78-1.409-2.402-.004-.021 1.169.24 2.001.426 0 0 .428.099 1.055.213-.602-.704-.959-1.599-.959-2.514 0-2.011 1.543-3.768.986-5.188.542.044 1.121.549 1.525 2.44.068.018.128.036.188.054.298-.691.559-1.592.609-2.621 1.499.827 1.693 3.781 1.693 3.781.187-.427.304-.853.304-.853s.56.427.56 1.561c0 1.035-.427 1.903-1.035 2.706.305-.089 1.055-.285 1.055-.285-.298.704-1.035 1.508-1.561 2.065z"/>
</svg>
