<svg xmlns="http://www.w3.org/2000/svg" aria-label="Redis" role="img" viewBox="0 0 24 24">
  <path fill="#912626" d="M22.138 17.076c-1.174.612-7.256 3.112-8.55 3.787s-2.015.669-3.038.18-7.495-3.103-8.66-3.66c-.584-.28-.89-.514-.89-.736v-2.224s8.426-1.834 9.787-2.322c1.36-.489 1.832-.506 2.99-.082 1.157.424 8.079 1.673 9.223 2.092v2.192c0 .22-.264.461-.862.773"/>
  <path fill="#C6302B" d="M22.138 14.865c-1.174.612-7.256 3.113-8.55 3.787-1.296.676-2.015.67-3.038.18-1.023-.489-7.495-3.103-8.66-3.66-1.166-.558-1.19-.941-.046-1.39 1.146-.448 7.582-2.973 8.943-3.462 1.36-.487 1.832-.505 2.99-.081 1.157.424 7.203 2.83 8.346 3.25 1.145.419 1.189.764.015 1.376"/>
  <path fill="#912626" d="M22.138 13.477c-1.174.613-7.256 3.113-8.55 3.788-1.296.675-2.015.669-3.038.18s-7.495-3.104-8.66-3.66c-.584-.28-.89-.514-.89-.736v-2.224s8.426-1.835 9.787-2.323c1.36-.488 1.832-.505 2.99-.081 1.157.424 8.08 1.673 9.223 2.092v2.192c0 .22-.264.461-.862.772"/>
  <path fill="#C6302B" d="M22.138 11.267c-1.174.612-7.256 3.112-8.55 3.788-1.296.675-2.015.668-3.038.179s-7.495-3.103-8.66-3.66c-1.166-.558-1.19-.941-.046-1.39 1.146-.448 7.582-2.974 8.943-3.462s1.832-.505 2.99-.081c1.157.424 7.203 2.83 8.346 3.25 1.145.419 1.189.764.015 1.376"/>
  <path fill="#912626" d="M22.138 9.746c-1.174.612-7.256 3.113-8.55 3.788-1.296.675-2.015.668-3.038.18-1.023-.49-7.495-3.104-8.66-3.661-.584-.279-.89-.514-.89-.736V7.093s8.426-1.834 9.787-2.322c1.36-.488 1.832-.506 2.99-.082 1.157.425 8.08 1.673 9.223 2.092v2.193c0 .22-.264.46-.862.772"/>
  <path fill="#C6302B" d="M22.138 7.535c-1.174.612-7.256 3.113-8.55 3.788-1.296.675-2.015.668-3.038.18-1.023-.49-7.495-3.104-8.66-3.661s-1.19-.94-.046-1.39c1.146-.448 7.582-2.973 8.943-3.461s1.832-.506 2.99-.081 7.203 2.83 8.346 3.249c1.145.419 1.189.765.015 1.376"/>
  <path fill="#FFF" d="m14.688 5.372-1.891.196-.423 1.02-.684-1.138-2.184-.196 1.63-.588-.49-.902 1.526.597 1.439-.471-.39.933zm-2.427 4.943L8.73 8.851l5.058-.777zM7.366 5.938c1.494 0 2.704.47 2.704 1.048 0 .58-1.21 1.048-2.704 1.048s-2.703-.469-2.703-1.048c0-.578 1.21-1.048 2.703-1.048"/>
  <path fill="#621B1C" d="m16.924 5.65 2.994 1.184-2.992 1.182z"/>
  <path fill="#9A2928" d="m13.612 6.96 3.312-1.31.002 2.366-.324.127z"/>
</svg>
