<svg xmlns="http://www.w3.org/2000/svg" aria-label="ServiceNow" role="img" viewBox="0 0 24 24">
  <path fill="#62d84e" fill-rule="evenodd" d="M12.074 2.172C5.98 2.172 1 7.09 1 13.184c0 3.03 1.237 5.97 3.464 8.042.774.742 1.98.804 2.846.155a7.89 7.89 0 0 1 9.403 0c.866.65 2.073.587 2.846-.155 4.423-4.207 4.609-11.197.402-15.62-2.041-2.166-4.918-3.403-7.887-3.434m-.062 16.548c-2.97.093-5.444-2.258-5.506-5.196v-.278c0-3.032 2.474-5.506 5.506-5.506s5.505 2.474 5.505 5.506c.093 2.969-2.258 5.413-5.196 5.505-.124-.03-.217-.03-.31-.03" clip-rule="evenodd"/>
</svg>
