<svg xmlns="http://www.w3.org/2000/svg" aria-label="Teams" role="img" viewBox="0 0 24 24">
  <g transform="translate(1 1.767)scale(.00987)">
    <path fill="#5059C9" d="M1554.637 777.5h575.713c54.391 0 98.483 44.092 98.483 98.483v524.398c0 199.901-162.051 361.952-361.952 361.952h-1.711c-199.901.028-361.975-161.996-362.004-361.897V875.98c0-54.36 44.07-98.48 51.471-98.48"/>
    <circle cx="1943.75" cy="440.583" r="233.25" fill="#5059C9"/>
    <circle cx="1218.083" cy="336.917" r="336.917" fill="#7B83EB"/>
    <path fill="#7B83EB" d="M1667.323 777.5H717.01c-53.743 1.33-96.257 45.931-95.01 99.676v598.105c-7.505 322.519 247.657 590.16 570.167 598.053 322.51-7.893 577.671-275.534 570.167-598.053V877.176c1.245-53.745-41.268-98.346-95.011-99.676"/>
    <path d="M1244.167 777.5v838.145c-.258 38.435-23.549 72.964-59.09 87.598a91.9 91.9 0 0 1-35.765 7.257H783.876c-3.122-7.298-6.038-14.595-8.542-22.302-15.616-45.879-23.669-94.104-23.669-142.64V877.02c-1.246-53.659 41.198-98.19 94.855-99.52z" opacity=".1"/>
    <path d="M1192.167 777.5v890.145c0 19.32-6.217 38.14-17.702 53.694a95.16 95.16 0 0 1-41.388 33.904c-11.658 4.88-24.231 7.401-36.965 7.411H811.909c-9.876-21.564-18.616-43.821-25.833-66.927-3.122-7.298-6.038-14.595-8.542-22.302-15.616-45.879-23.669-94.104-23.669-142.64V877.02c-1.246-53.659 41.198-98.19 94.855-99.52h345.447z" opacity=".2"/>
    <path d="M1192.167 777.5v786.312c-.395 52.223-42.632 94.46-94.855 94.855H786.076c-15.616-45.879-23.669-94.104-23.669-142.64V877.02c-1.246-53.659 41.198-98.19 94.855-99.52z" opacity=".2"/>
    <path d="M1140.167 777.5v786.312c-.395 52.223-42.632 94.46-94.855 94.855H786.076c-15.616-45.879-23.669-94.104-23.669-142.64V877.02c-1.246-53.659 41.198-98.19 94.855-99.52z" opacity=".2"/>
    <linearGradient id="a" x1="198.099" x2="942.234" y1="1683.073" y2="394.261" gradientTransform="matrix(1 0 0 -1 0 2075.333)" gradientUnits="userSpaceOnUse">
      <stop offset="0" stop-color="#5a62c3"/>
      <stop offset=".5" stop-color="#4d55bd"/>
      <stop offset="1" stop-color="#3940ab"/>
    </linearGradient>
    <path fill="url(#a)" d="M95.01 777.5h950.312c52.473 0 95.01 42.538 95.01 95.01v950.312c0 52.473-42.538 95.01-95.01 95.01H95.01c-52.473 0-95.01-42.538-95.01-95.01V872.51c0-52.472 42.538-95.01 95.01-95.01"/>
    <path fill="#FFF" d="M820.211 1100.522h-189.97v476.406h-121.03v-476.406H320.123V999.811h500.088z"/>
  </g>
</svg>
