<svg xmlns="http://www.w3.org/2000/svg" aria-label="Zabbix" role="img" viewBox="0 0 24 24">
  <path fill="#d40000" d="M1 9.119h22v5.762H1zm0 0"/>
  <path fill="#fff" d="M1.94 9.997h3.182v.413l-2.56 3.137h2.623v.456H1.878v-.413l2.56-3.137H1.942zm5.396.534-.743 1.994h1.489zm-.31-.534h.622l1.543 4.006h-.57l-.368-1.027H6.427l-.369 1.027H5.48zm3.301 2.093v1.468h.88q.441 0 .654-.181c.214-.182.213-.306.213-.554q0-.376-.213-.555-.213-.177-.655-.178zm0-1.648v1.208h.812q.401 0 .598-.149t.196-.454q0-.303-.196-.454-.196-.15-.598-.15zm-.547-.445h1.4q.626 0 .965.258.339.257.338.732 0 .367-.173.585c-.173.218-.286.236-.51.272q.405.085.628.357c.223.272.224.409.224.68q0 .537-.37.83-.368.292-1.049.292H9.78zm4.298 2.093v1.468h.88q.442 0 .654-.181.213-.182.213-.554 0-.376-.213-.555-.213-.177-.654-.178zm0-1.648v1.208h.811q.402 0 .599-.149t.196-.454q0-.303-.196-.454c-.196-.15-.33-.15-.599-.15zm-.548-.445h1.4q.627 0 .966.258.339.257.339.732 0 .367-.174.585c-.174.218-.286.236-.51.272q.405.085.628.357c.223.272.224.409.224.68q0 .537-.369.83-.37.292-1.049.292H13.53zm5.338 0h.602l.953 1.439.961-1.439h.582l-1.253 1.877 1.41 2.13h-.603l-1.11-1.677-1.12 1.676h-.582l1.413-2.114zm-1.587 0h.548v4.006h-.548zm0 0"/>
</svg>
