<svg xmlns="http://www.w3.org/2000/svg" viewBox="0 0 160 32" fill="none">
  <path d="M9.92119 11.1925C11.6081 7.20427 16.3617 4 20.846 4C25.2091 4 30.0179 7.20427 31.7048 11.1925C31.9963 11.1652 32.2918 11.1487 32.5914 11.1487C37.581 11.1477 41.626 15.0804 41.626 19.9316C41.626 24.7827 37.581 28.7154 32.5914 28.7154H9.03465C4.04501 28.7154 0 24.7827 0 19.9316C0 15.0804 4.04501 11.1477 9.03465 11.1487C9.33417 11.1487 9.62968 11.1652 9.92119 11.1925Z" fill="url(#paint0_linear_577_141)"/>
  <path d="M55.5673 24.5909C53.5472 24.5909 52.0163 24.0488 50.9745 22.9646C49.9454 21.8804 49.4309 20.4161 49.4309 18.5717C49.4309 17.2508 49.6469 16.1167 50.0788 15.1696C50.5235 14.21 51.1968 13.4748 52.0989 12.9638C53.0009 12.4404 54.1507 12.1787 55.5482 12.1787C56.2597 12.1787 56.9076 12.2348 57.492 12.347C58.0892 12.4467 58.6418 12.5837 59.15 12.7582V14.5341C58.6418 14.3347 58.0955 14.1851 57.5111 14.0854C56.9394 13.9733 56.3359 13.9172 55.7007 13.9172C54.1761 13.9172 53.0962 14.316 52.461 15.1135C51.8384 15.9111 51.5272 17.0638 51.5272 18.5717C51.5272 19.9799 51.8702 21.0517 52.5563 21.7869C53.2423 22.5097 54.3032 22.8711 55.7388 22.8711C56.3232 22.8711 56.9076 22.8275 57.492 22.7403C58.0892 22.6406 58.6482 22.491 59.1691 22.2916V24.0862C58.6609 24.2482 58.1082 24.3728 57.5111 24.46C56.9267 24.5472 56.2787 24.5909 55.5673 24.5909Z" fill="url(#paint1_linear_577_141)"/>
  <path d="M63.1141 24.5909C62.3773 24.5909 61.8182 24.4164 61.4371 24.0675C61.056 23.7061 60.8654 23.1141 60.8654 22.2916V11.8049H62.9426V22.1047C62.9426 22.4536 63.0061 22.6904 63.1332 22.815C63.2602 22.9396 63.4508 23.002 63.7049 23.002C64.0098 23.002 64.302 22.9646 64.5815 22.8898V24.3665C64.3401 24.4538 64.1051 24.5099 63.8764 24.5348C63.6604 24.5722 63.4063 24.5909 63.1141 24.5909Z" fill="url(#paint2_linear_577_141)"/>
  <path d="M70.2149 24.5909C68.5887 24.5909 67.3945 24.1921 66.6322 23.3945C65.8826 22.5969 65.5078 21.4567 65.5078 19.9737C65.5078 18.4907 65.889 17.3505 66.6513 16.5529C67.4135 15.7553 68.6014 15.3566 70.2149 15.3566C71.8411 15.3566 73.0354 15.7553 73.7977 16.5529C74.56 17.3505 74.9411 18.4907 74.9411 19.9737C74.9411 21.4567 74.56 22.5969 73.7977 23.3945C73.0481 24.1921 71.8538 24.5909 70.2149 24.5909ZM70.2149 22.8711C71.1678 22.8711 71.8411 22.6468 72.235 22.1982C72.6415 21.7371 72.8448 20.9956 72.8448 19.9737C72.8448 18.9518 72.6415 18.2166 72.235 17.7679C71.8411 17.3193 71.1678 17.095 70.2149 17.095C69.2748 17.095 68.6014 17.3193 68.1949 17.7679C67.801 18.2166 67.6041 18.9518 67.6041 19.9737C67.6041 20.9956 67.801 21.7371 68.1949 22.1982C68.6014 22.6468 69.2748 22.8711 70.2149 22.8711Z" fill="url(#paint3_linear_577_141)"/>
  <path d="M79.9033 24.5909C78.8234 24.5909 77.9913 24.298 77.4068 23.7123C76.8351 23.1266 76.5493 22.2667 76.5493 21.1327V15.5435H78.6265V21.1327C78.6265 21.7931 78.7917 22.2792 79.122 22.5907C79.4523 22.9023 79.9605 23.058 80.6466 23.058C81.1547 23.058 81.6248 22.9646 82.0568 22.7776C82.4887 22.5907 82.8635 22.3415 83.1811 22.0299V15.5435H85.2393V24.4039H83.3527L83.2574 23.488C82.8508 23.7995 82.368 24.0612 81.809 24.2731C81.25 24.4849 80.6148 24.5909 79.9033 24.5909Z" fill="url(#paint4_linear_577_141)"/>
  <path d="M91.0795 24.5909C90.2664 24.5909 89.5486 24.4538 88.9261 24.1796C88.3035 23.9054 87.8207 23.4506 87.4777 22.815C87.1347 22.1795 86.9632 21.3258 86.9632 20.2541C86.9632 19.1948 87.1474 18.3038 87.5158 17.581C87.8843 16.8457 88.3925 16.2912 89.0404 15.9173C89.7011 15.5435 90.4443 15.3566 91.2701 15.3566C91.8164 15.3566 92.2992 15.4189 92.7184 15.5435C93.1504 15.6681 93.5633 15.8612 93.9571 16.123V11.8049H96.0344V24.4039H94.262L94.1286 23.5254C93.7221 23.8868 93.2774 24.1547 92.7947 24.3292C92.3119 24.5036 91.7402 24.5909 91.0795 24.5909ZM91.6322 23.058C92.5596 23.058 93.3346 22.7465 93.9571 22.1234V17.6932C93.36 17.1698 92.6104 16.9081 91.7084 16.9081C90.8318 16.9081 90.1711 17.1947 89.7265 17.7679C89.2818 18.3412 89.0595 19.1761 89.0595 20.2728C89.0595 21.3321 89.2627 22.0611 89.6693 22.4599C90.0886 22.8586 90.7428 23.058 91.6322 23.058Z" fill="url(#paint5_linear_577_141)"/>
  <path fill-rule="evenodd" clip-rule="evenodd" d="M20.6181 9.34876C20.6434 9.26237 20.7234 9.20337 20.813 9.20337C20.9025 9.20337 20.9826 9.26237 21.0079 9.34876C21.0079 9.34876 21.364 10.5446 21.7465 11.8257C22.3554 13.8686 23.9537 15.4658 25.9955 16.0748C27.2777 16.4572 28.4725 16.8133 28.4725 16.8133C28.5589 16.8386 28.6179 16.9187 28.6179 17.0082C28.6179 17.0978 28.5589 17.1779 28.4725 17.2032C28.4725 17.2032 27.2767 17.5593 25.9955 17.9417C23.9526 18.5507 22.3554 20.149 21.7465 22.1908C21.364 23.473 21.0079 24.6677 21.0079 24.6677C20.9826 24.7541 20.9025 24.8131 20.813 24.8131C20.7234 24.8131 20.6434 24.7541 20.6181 24.6677C20.6181 24.6677 20.262 23.4719 19.8795 22.1908C19.2706 20.1479 17.6723 18.5507 15.6305 17.9417C14.3483 17.5593 13.1535 17.2032 13.1535 17.2032C13.0671 17.1779 13.0081 17.0978 13.0081 17.0082C13.0081 16.9187 13.0671 16.8386 13.1535 16.8133C13.1535 16.8133 14.3493 16.4572 15.6305 16.0748C17.6733 15.4658 19.2706 13.8675 19.8795 11.8257C20.262 10.5435 20.6181 9.34876 20.6181 9.34876Z" fill="white"/>
  <path d="M103.634 24.6229V13.992H99.8038V12.3755H109.472V13.992H105.661V24.6229H103.634Z" fill="white"/>
  <path d="M110.787 24.6229V11.8049H112.813V16.4833C113.198 16.1663 113.656 15.9128 114.189 15.7226C114.722 15.5197 115.323 15.4183 115.993 15.4183C117.108 15.4183 117.933 15.6909 118.466 16.2361C118.999 16.7812 119.265 17.6307 119.265 18.7844V24.6229H117.257V18.8795C117.257 18.1822 117.108 17.6941 116.811 17.4152C116.526 17.1362 116.024 16.9968 115.305 16.9968C114.859 16.9968 114.406 17.0982 113.947 17.3011C113.489 17.4912 113.111 17.7448 112.813 18.0618V24.6229H110.787Z" fill="white"/>
  <path d="M121.97 13.7257V12.0141H124.182V13.7257H121.97ZM122.137 24.6229V17.187H120.798L120.984 15.6085H124.164V24.6229H122.137Z" fill="white"/>
  <path d="M126.218 24.6229V15.6085H128.077L128.17 16.5594C128.567 16.2424 129.038 15.9762 129.583 15.7606C130.141 15.5324 130.755 15.4183 131.424 15.4183C132.564 15.4183 133.395 15.6909 133.915 16.2361C134.436 16.7812 134.696 17.6307 134.696 18.7844V24.6229H132.688V18.8795C132.688 18.1822 132.546 17.6941 132.261 17.4152C131.988 17.1362 131.467 16.9968 130.699 16.9968C130.24 16.9968 129.788 17.0919 129.342 17.282C128.908 17.4722 128.542 17.7194 128.245 18.0237V24.6229H126.218Z" fill="white"/>
  <path d="M136.657 24.6229V11.8049H138.684V19.2218L142.384 15.6085H144.708L141.12 19.2409L144.913 24.6229H142.774L139.855 20.3439L138.684 21.485V24.6229H136.657Z" fill="white"/>
  <path d="M149.58 24.8131C148.043 24.8131 146.853 24.4264 146.01 23.653C145.167 22.8796 144.745 21.6942 144.745 20.0967C144.745 18.6513 145.105 17.5103 145.824 16.6735C146.543 15.8367 147.634 15.4183 149.096 15.4183C150.435 15.4183 151.439 15.7796 152.108 16.5023C152.79 17.2123 153.131 18.1315 153.131 19.2599V20.9334H146.679C146.778 21.8083 147.088 22.4105 147.609 22.7401C148.129 23.0698 148.923 23.2346 149.989 23.2346C150.435 23.2346 150.894 23.1902 151.365 23.1015C151.836 23.0127 152.245 22.8986 152.592 22.7591V24.2806C152.195 24.4581 151.736 24.5912 151.216 24.6799C150.708 24.7687 150.162 24.8131 149.58 24.8131ZM146.679 19.5832H151.346V18.9556C151.346 18.3344 151.179 17.8526 150.844 17.5103C150.509 17.1553 149.945 16.9778 149.152 16.9778C148.21 16.9778 147.559 17.187 147.2 17.6053C146.853 18.0237 146.679 18.683 146.679 19.5832Z" fill="white"/>
  <path d="M154.794 24.6229V15.6085H156.653L156.765 16.6545C157.186 16.3755 157.688 16.122 158.271 15.8938C158.853 15.6655 159.43 15.5071 160 15.4183V16.9968C159.653 17.0602 159.275 17.1553 158.866 17.282C158.469 17.3962 158.091 17.5293 157.732 17.6814C157.372 17.8209 157.068 17.9667 156.821 18.1188V24.6229H154.794Z" fill="white"/>
  <defs>
    <linearGradient id="paint0_linear_577_141" x1="3.55844e-07" y1="28.7154" x2="16.2627" y2="-21.7696" gradientUnits="userSpaceOnUse">
      <stop stop-color="#09AAAA"/>
      <stop offset="0.5" stop-color="#0C93C0"/>
      <stop offset="1" stop-color="#0FF080"/>
    </linearGradient>
    <linearGradient id="paint1_linear_577_141" x1="3.55844e-07" y1="28.7154" x2="16.2627" y2="-21.7696" gradientUnits="userSpaceOnUse">
      <stop stop-color="#09AAAA"/>
      <stop offset="0.5" stop-color="#0C93C0"/>
      <stop offset="1" stop-color="#0FF080"/>
    </linearGradient>
    <linearGradient id="paint2_linear_577_141" x1="3.55844e-07" y1="28.7154" x2="16.2627" y2="-21.7696" gradientUnits="userSpaceOnUse">
      <stop stop-color="#09AAAA"/>
      <stop offset="0.5" stop-color="#0C93C0"/>
      <stop offset="1" stop-color="#0FF080"/>
    </linearGradient>
    <linearGradient id="paint3_linear_577_141" x1="3.55844e-07" y1="28.7154" x2="16.2627" y2="-21.7696" gradientUnits="userSpaceOnUse">
      <stop stop-color="#09AAAA"/>
      <stop offset="0.5" stop-color="#0C93C0"/>
      <stop offset="1" stop-color="#0FF080"/>
    </linearGradient>
    <linearGradient id="paint4_linear_577_141" x1="3.55844e-07" y1="28.7154" x2="16.2627" y2="-21.7696" gradientUnits="userSpaceOnUse">
      <stop stop-color="#09AAAA"/>
      <stop offset="0.5" stop-color="#0C93C0"/>
      <stop offset="1" stop-color="#0FF080"/>
    </linearGradient>
    <linearGradient id="paint5_linear_577_141" x1="3.55844e-07" y1="28.7154" x2="16.2627" y2="-21.7696" gradientUnits="userSpaceOnUse">
      <stop stop-color="#09AAAA"/>
      <stop offset="0.5" stop-color="#0C93C0"/>
      <stop offset="1" stop-color="#0FF080"/>
    </linearGradient>
  </defs>
</svg>
