<svg xmlns="http://www.w3.org/2000/svg" viewBox="0 0 198 40" fill="none">
  <path d="M68.922 17.1558C68.5137 16.6156 68.0033 16.2 67.3807 15.9091C66.758 15.6182 66.115 15.4727 65.4515 15.4727C64.6349 15.4727 63.8999 15.6286 63.2467 15.9403C62.5934 16.2519 62.032 16.6779 61.5624 17.2078C61.0929 17.7377 60.7356 18.3714 60.4702 19.0987C60.215 19.826 60.0823 20.5948 60.0823 21.426C60.0823 22.1948 60.2048 22.9325 60.4498 23.6182C60.6948 24.3039 61.0418 24.9169 61.5114 25.4364C61.9707 25.9558 62.5321 26.3714 63.1956 26.6727C63.8591 26.974 64.6145 27.1299 65.4515 27.1299C66.2885 27.1299 67.003 26.9532 67.6257 26.6104C68.2483 26.2675 68.7791 25.7792 69.2078 25.1662L70.8512 26.4234C70.739 26.5792 70.5552 26.787 70.2796 27.0779C70.004 27.3688 69.6468 27.639 69.1976 27.9299C68.7485 28.2208 68.2075 28.4597 67.5848 28.6779C66.9622 28.8961 66.2272 29 65.4004 29C64.2572 29 63.2364 28.7818 62.3178 28.3351C61.3991 27.8987 60.6233 27.3169 59.9803 26.6C59.3372 25.8831 58.8472 25.0727 58.5104 24.1688C58.1735 23.2649 58 22.3506 58 21.426C58 20.2935 58.1837 19.2545 58.5512 18.2883C58.9187 17.3325 59.429 16.5013 60.0823 15.8052C60.7356 15.1091 61.5318 14.5688 62.4505 14.1844C63.3691 13.8 64.3899 13.6026 65.5025 13.6026C66.4518 13.6026 67.3807 13.7896 68.2994 14.1636C69.218 14.5377 69.9632 15.1091 70.545 15.8779L68.922 17.1351V17.1558ZM72.8927 13H74.7199V28.6364H72.8927V13ZM77.1595 23.7325C77.1595 23.0156 77.2922 22.3506 77.5576 21.7273C77.823 21.1039 78.1802 20.5636 78.6498 20.0961C79.1193 19.6286 79.6501 19.2545 80.2728 18.9844C80.8954 18.7143 81.5691 18.5792 82.2836 18.5792C82.9982 18.5792 83.6719 18.7143 84.2945 18.9844C84.9172 19.2545 85.4582 19.6182 85.9175 20.0961C86.3768 20.574 86.7443 21.1143 87.0097 21.7273C87.2751 22.3403 87.4078 23.0156 87.4078 23.7325C87.4078 24.4494 87.2751 25.1247 87.0097 25.7481C86.7443 26.3714 86.387 26.9221 85.9175 27.3792C85.4582 27.8468 84.9172 28.2104 84.2945 28.4805C83.6719 28.7506 82.9982 28.8857 82.2836 28.8857C81.5691 28.8857 80.8954 28.7506 80.2728 28.4805C79.6501 28.2104 79.1091 27.8468 78.6498 27.3792C78.1904 26.9221 77.823 26.3714 77.5576 25.7481C77.2922 25.1247 77.1595 24.4494 77.1595 23.7325ZM79.1091 23.7325C79.1091 24.2312 79.1806 24.6883 79.3337 25.1039C79.4868 25.5195 79.6909 25.8831 79.9665 26.1844C80.2421 26.4857 80.5688 26.7143 80.9669 26.8909C81.3548 27.0675 81.8039 27.1506 82.2836 27.1506C82.7634 27.1506 83.2125 27.0675 83.6004 26.8909C83.9883 26.7143 84.3251 26.4857 84.6007 26.1844C84.8661 25.8831 85.0805 25.5299 85.2336 25.1039C85.3867 24.6779 85.4582 24.2208 85.4582 23.7325C85.4582 23.2442 85.3867 22.7766 85.2336 22.361C85.0805 21.9351 84.8763 21.5818 84.6007 21.2805C84.3251 20.9792 83.9985 20.7506 83.6004 20.574C83.2023 20.3974 82.7634 20.3143 82.2836 20.3143C81.8039 20.3143 81.3548 20.3974 80.9669 20.574C80.5688 20.7506 80.2421 20.9792 79.9665 21.2805C79.6909 21.5818 79.4868 21.9351 79.3337 22.361C79.1806 22.787 79.1091 23.2442 79.1091 23.7325ZM98.238 28.6364H96.4108V27.1299H96.37C96.1352 27.6494 95.7371 28.0753 95.1757 28.4078C94.6041 28.7299 93.9508 28.8961 93.2057 28.8961C92.7361 28.8961 92.287 28.8234 91.8685 28.6779C91.45 28.5325 91.0825 28.3039 90.7661 28.0026C90.4496 27.7013 90.1944 27.3065 90.0005 26.839C89.8066 26.3714 89.7147 25.8 89.7147 25.1558V18.8494H91.5418V24.6468C91.5418 25.1039 91.6031 25.4883 91.7256 25.8208C91.8481 26.1429 92.0114 26.4026 92.2155 26.6104C92.4197 26.8078 92.6544 26.9532 92.9198 27.0468C93.1852 27.1403 93.4608 27.1818 93.7467 27.1818C94.1243 27.1818 94.4816 27.1195 94.8082 26.9948C95.1349 26.8701 95.4207 26.6727 95.6657 26.4026C95.9106 26.1325 96.0944 25.7896 96.2373 25.374C96.37 24.9584 96.4414 24.4701 96.4414 23.9091V18.8597H98.2686V28.6675L98.238 28.6364ZM110.65 28.6364H108.823V27.2338H108.782C108.425 27.7532 107.945 28.1688 107.333 28.4493C106.72 28.7403 106.088 28.8857 105.434 28.8857C104.689 28.8857 104.015 28.7506 103.413 28.4909C102.811 28.2312 102.29 27.8675 101.872 27.4C101.453 26.9325 101.116 26.3818 100.882 25.7688C100.647 25.1558 100.535 24.4701 100.535 23.7429C100.535 23.0156 100.647 22.3299 100.882 21.7065C101.116 21.0831 101.443 20.5325 101.872 20.0753C102.301 19.6182 102.811 19.2545 103.413 18.9948C104.015 18.7351 104.689 18.6 105.434 18.6C106.128 18.6 106.771 18.7455 107.384 19.0468C107.996 19.3481 108.466 19.7429 108.782 20.2623H108.823V13.0208H110.65V28.6571V28.6364ZM105.659 27.1506C106.149 27.1506 106.588 27.0675 106.976 26.8909C107.363 26.7143 107.7 26.4857 107.976 26.1844C108.241 25.8831 108.456 25.5299 108.609 25.1039C108.762 24.6779 108.833 24.2208 108.833 23.7325C108.833 23.2442 108.762 22.7766 108.609 22.361C108.456 21.9351 108.252 21.5818 107.976 21.2805C107.7 20.9792 107.374 20.7506 106.976 20.574C106.577 20.3974 106.139 20.3143 105.659 20.3143C105.179 20.3143 104.73 20.3974 104.342 20.574C103.944 20.7506 103.617 20.9792 103.342 21.2805C103.066 21.5818 102.862 21.9351 102.709 22.361C102.556 22.787 102.484 23.2442 102.484 23.7325C102.484 24.2208 102.556 24.6883 102.709 25.1039C102.862 25.5195 103.066 25.8831 103.342 26.1844C103.617 26.4857 103.944 26.7143 104.342 26.8909C104.73 27.0675 105.179 27.1506 105.659 27.1506ZM116.897 15.8571H112.263V13.9974H123.481V15.8571H118.847V28.6468H116.897V15.8571ZM125.084 13H126.911V20.3455H126.952C127.186 19.826 127.585 19.4 128.156 19.0779C128.728 18.7558 129.381 18.5896 130.126 18.5896C130.586 18.5896 131.035 18.6623 131.453 18.8078C131.882 18.9532 132.249 19.1714 132.566 19.4831C132.882 19.7844 133.137 20.1792 133.331 20.6468C133.525 21.1143 133.617 21.6857 133.617 22.3299V28.6364H131.79V22.839C131.79 22.3818 131.729 21.9974 131.606 21.6753C131.484 21.3532 131.32 21.0935 131.116 20.8857C130.912 20.6883 130.677 20.5429 130.412 20.4494C130.147 20.3558 129.871 20.3143 129.585 20.3143C129.207 20.3143 128.85 20.3766 128.524 20.5013C128.197 20.626 127.911 20.8234 127.666 21.0935C127.421 21.3636 127.227 21.7065 127.095 22.1221C126.962 22.5377 126.89 23.026 126.89 23.587V28.6364H125.063V13H125.084ZM136.098 15.3169C136.098 14.9429 136.23 14.6208 136.496 14.3506C136.761 14.0805 137.077 13.9455 137.445 13.9455C137.812 13.9455 138.129 14.0805 138.394 14.3506C138.66 14.6208 138.792 14.9429 138.792 15.3169C138.792 15.6909 138.66 16.013 138.394 16.2831C138.129 16.5532 137.812 16.6883 137.445 16.6883C137.077 16.6883 136.761 16.5532 136.496 16.2831C136.23 16.013 136.098 15.6909 136.098 15.3169ZM136.526 18.8286H138.353V28.6364H136.526V18.8286ZM141.263 18.8286H143.09V20.3351H143.131C143.365 19.8156 143.763 19.3896 144.335 19.0675C144.907 18.7455 145.56 18.5792 146.305 18.5792C146.764 18.5792 147.214 18.6519 147.632 18.7974C148.061 18.9429 148.428 19.161 148.745 19.4727C149.061 19.774 149.316 20.1688 149.51 20.6364C149.704 21.1039 149.796 21.6753 149.796 22.3195V28.626H147.969V22.8286C147.969 22.3714 147.908 21.987 147.785 21.6649C147.663 21.3429 147.499 21.0831 147.295 20.8753C147.091 20.6779 146.856 20.5325 146.591 20.439C146.325 20.3455 146.05 20.3039 145.764 20.3039C145.386 20.3039 145.029 20.3662 144.702 20.4909C144.376 20.6156 144.09 20.813 143.845 21.0831C143.6 21.3532 143.406 21.6961 143.273 22.1117C143.141 22.5273 143.069 23.0156 143.069 23.5766V28.626H141.242V18.8182L141.263 18.8286ZM152.562 13H154.389V23.0987L158.534 18.8597H161.075L156.584 23.3065L161.463 28.6468H158.86L154.389 23.5558V28.6468H152.562V13ZM164.495 24.4182C164.495 24.8442 164.587 25.239 164.77 25.5818C164.954 25.9351 165.199 26.2364 165.495 26.4857C165.791 26.7351 166.138 26.9221 166.536 27.0675C166.924 27.2026 167.333 27.2753 167.761 27.2753C168.333 27.2753 168.823 27.1403 169.241 26.8701C169.66 26.6 170.048 26.2468 170.395 25.8L171.773 26.8805C170.752 28.2208 169.333 28.8857 167.506 28.8857C166.751 28.8857 166.057 28.7506 165.444 28.4909C164.832 28.2312 164.301 27.8675 163.882 27.4104C163.454 26.9429 163.127 26.4026 162.892 25.7792C162.657 25.1558 162.545 24.4701 162.545 23.7429C162.545 23.0156 162.668 22.3299 162.923 21.7065C163.178 21.0831 163.515 20.5325 163.964 20.0753C164.403 19.6182 164.934 19.2545 165.536 18.9948C166.138 18.7351 166.812 18.6 167.526 18.6C168.384 18.6 169.098 18.7558 169.69 19.0571C170.282 19.3584 170.762 19.7532 171.14 20.2416C171.518 20.7299 171.793 21.2805 171.967 21.8935C172.14 22.5065 172.222 23.1299 172.222 23.7636V24.4286H164.495V24.4182ZM170.272 22.9325C170.262 22.5169 170.191 22.1429 170.078 21.8C169.966 21.4571 169.793 21.1558 169.558 20.8961C169.323 20.6364 169.037 20.439 168.69 20.2935C168.343 20.1481 167.945 20.0753 167.486 20.0753C167.026 20.0753 166.628 20.1584 166.251 20.3351C165.873 20.5117 165.567 20.7299 165.301 21.0104C165.046 21.2909 164.842 21.5922 164.699 21.9351C164.556 22.2779 164.485 22.6104 164.485 22.9325H170.262H170.272ZM174.417 18.8286H176.244V20.3351H176.284C176.407 20.0753 176.57 19.8364 176.774 19.6182C176.979 19.4 177.203 19.2234 177.458 19.0675C177.714 18.9117 177.979 18.7974 178.285 18.7039C178.581 18.6104 178.877 18.5688 179.183 18.5688C179.49 18.5688 179.755 18.6104 180 18.6935L179.918 20.6987C179.765 20.6571 179.622 20.626 179.469 20.5948C179.316 20.5636 179.173 20.5532 179.02 20.5532C178.122 20.5532 177.438 20.813 176.968 21.3221C176.499 21.8312 176.254 22.6208 176.254 23.7013V28.626H174.427V18.8182L174.417 18.8286Z" fill="#FAFAFA"/>
  <path d="M19.0273 31.325C18.6648 31.325 18.3523 31.325 18.0398 31.2875C15.2398 30.925 12.8523 29.375 11.3398 26.9C10.5523 25.625 10.1023 24.2 10.0148 22.6625C9.92732 21.075 10.2273 19.525 10.9148 18.025C12.3398 14.9625 15.6148 12.825 18.8898 12.825C18.9773 12.825 19.0648 12.825 19.1648 12.825L19.3273 12.45C19.4148 12.2375 19.5148 12.025 19.6148 11.825C20.9023 9.2375 23.3023 7.275 26.1898 6.4375C26.5523 6.3375 26.9898 6.225 27.5023 6.125C27.7148 6.0875 27.9273 6.0625 28.1273 6.0625C28.2898 6.0625 28.4648 6.05 28.6148 6.025C28.7023 6.0125 28.8398 6 29.0273 6C29.1273 6 29.2273 6 29.3523 6.0125C29.8273 6.025 30.3273 6.05 30.7773 6.125C33.7648 6.5875 36.3398 8.175 38.0398 10.5875C38.5023 11.25 38.8773 11.9875 39.1898 12.8375C39.1898 12.8375 39.2523 12.825 39.2648 12.825C42.9773 12.825 46.4523 15.275 47.7523 18.7875C48.3898 20.4875 48.5148 22.225 48.1523 24.0125C47.4148 27.65 44.5773 30.4625 40.9148 31.2C40.4898 31.2875 40.1023 31.3125 39.6023 31.3125H19.0273V31.325Z" fill="url(#paint0_linear_1129_554)"/>
  <path d="M30.2508 26.6866C30.2021 26.5367 30.0725 26.4535 29.9266 26.4535H25.0312C24.2694 26.4535 23.6534 25.8208 23.6534 25.0382V16.1303C23.6534 15.3477 24.2694 14.715 25.0312 14.715H33.7035C34.4653 14.715 35.0813 15.3477 35.0813 16.1303V20.5759C35.0813 20.7757 35.2434 20.9256 35.4379 20.9256C35.7297 20.9256 36.0052 20.9922 36.2646 21.1254C36.4267 21.2253 36.6374 21.142 36.7347 20.9755C36.7509 20.9256 36.7833 20.859 36.7671 20.809V16.1303C36.7671 14.3986 35.4055 13 33.7197 13H25.0474C23.3616 13 22 14.3986 22 16.1303V25.0382C22 26.7698 23.3616 28.1685 25.0474 28.1685H30.6398C30.8343 28.1685 30.9802 28.002 30.9802 27.8188C30.9802 27.7189 30.9478 27.6357 30.883 27.569C30.6236 27.3359 30.4129 27.0362 30.2508 26.7032V26.6866ZM32.1959 17.3624H32.2122C32.4553 17.3624 32.6498 17.5622 32.6498 17.8119V23.1734C32.6498 23.4231 32.4553 23.6229 32.2122 23.6229H32.1959C31.9528 23.6229 31.7583 23.4231 31.7583 23.1734V17.8119C31.7583 17.5622 31.9528 17.3624 32.1959 17.3624ZM38.8906 26.1538L37.3669 25.5377C36.8157 25.3213 36.3943 24.8717 36.1673 24.3056L35.5676 22.7571C35.5676 22.7571 35.4703 22.6572 35.4055 22.6572C35.3406 22.6572 35.2758 22.7072 35.2434 22.7571L34.6436 24.3056C34.4329 24.8717 33.9952 25.3046 33.4441 25.5377L31.9366 26.1538C31.8393 26.1871 31.8069 26.287 31.8393 26.3869C31.8555 26.4368 31.888 26.4701 31.9366 26.4868L33.4441 27.1028C33.9952 27.3193 34.4167 27.7689 34.6436 28.335L35.2434 29.8834C35.2434 29.8834 35.3406 30 35.4055 30C35.4703 30 35.5352 29.9501 35.5676 29.8834L36.1673 28.335C36.3781 27.7689 36.8157 27.3359 37.3669 27.1028L38.8906 26.4868C38.9878 26.4535 39.0203 26.3536 38.9878 26.2537C38.9716 26.2037 38.9392 26.1704 38.8906 26.1538ZM30.3805 23.3399L28.565 17.5122C28.5325 17.4123 28.4515 17.3624 28.3704 17.3624H27.5275C27.4303 17.3624 27.3492 17.429 27.333 17.5122L25.5175 23.3399C25.4851 23.4564 25.5337 23.573 25.6472 23.6229C25.6634 23.6229 25.6796 23.6229 25.712 23.6229H26.2308C26.328 23.6229 26.4091 23.5563 26.4253 23.4731L26.7008 22.5406H29.1647L29.4565 23.4731C29.4889 23.573 29.57 23.6229 29.651 23.6229H30.1697C30.2832 23.6229 30.3805 23.523 30.3805 23.4065C30.3805 23.3898 30.3805 23.3732 30.3805 23.3399ZM26.9926 21.6082L27.9328 18.6112L28.8729 21.6082H26.9926Z" fill="url(#paint1_linear_1129_554)"/>
  <defs>
    <linearGradient id="paint0_linear_1129_554" x1="10.0023" y1="31.5125" x2="15.0067" y2="-15.4351" gradientUnits="userSpaceOnUse">
      <stop stop-color="#09AAAA"/>
      <stop offset="0.25" stop-color="#0C93C0"/>
      <stop offset="0.75" stop-color="#0FF080"/>
    </linearGradient>
    <linearGradient id="paint1_linear_1129_554" x1="10" y1="32" x2="7.66159" y2="11.2777" gradientUnits="userSpaceOnUse">
      <stop stop-color="#CFFCFC"/>
      <stop offset="0.25" stop-color="#CFF1FC"/>
      <stop offset="0.75" stop-color="#CFFCE6"/>
    </linearGradient>
  </defs>
</svg>