<svg width="200" height="29" viewBox="0 0 200 29" fill="none" xmlns="http://www.w3.org/2000/svg">
<path d="M11.2824 8.26545C13.2008 3.68226 18.6066 0 23.7062 0C28.6679 0 34.1365 3.68226 36.0549 8.26545C36.3864 8.23411 36.7224 8.21508 37.063 8.21508C42.7373 8.21396 47.3373 12.7334 47.3373 18.3082C47.3373 23.883 42.7373 28.4024 37.063 28.4024H10.2742C4.6 28.4024 0 23.883 0 18.3082C0 12.7334 4.6 8.21396 10.2742 8.21508C10.6149 8.21508 10.9509 8.23411 11.2824 8.26545Z" fill="url(#paint0_linear_363_47)"/>
<path fill-rule="evenodd" clip-rule="evenodd" d="M23.4618 8.43832C23.4886 8.34662 23.5736 8.284 23.6687 8.284C23.7637 8.284 23.8487 8.34662 23.8755 8.43832C23.8755 8.43832 24.2535 9.70753 24.6594 11.0673C25.3058 13.2356 27.0022 14.9309 29.1694 15.5772C30.5303 15.9832 31.7984 16.3611 31.7984 16.3611C31.8901 16.388 31.9527 16.473 31.9527 16.568C31.9527 16.6631 31.8901 16.7481 31.7984 16.7749C31.7984 16.7749 30.5292 17.1529 29.1694 17.5588C27.0011 18.2051 25.3058 19.9015 24.6594 22.0687C24.2535 23.4296 23.8755 24.6977 23.8755 24.6977C23.8487 24.7894 23.7637 24.852 23.6687 24.852C23.5736 24.852 23.4886 24.7894 23.4618 24.6977C23.4618 24.6977 23.0838 23.4285 22.6779 22.0687C22.0315 19.9004 20.3352 18.2051 18.168 17.5588C16.8071 17.1529 15.539 16.7749 15.539 16.7749C15.4473 16.7481 15.3846 16.6631 15.3846 16.568C15.3846 16.473 15.4473 16.388 15.539 16.3611C15.539 16.3611 16.8082 15.9832 18.168 15.5772C20.3363 14.9309 22.0315 13.2345 22.6779 11.0673C23.0838 9.70642 23.4618 8.43832 23.4618 8.43832Z" fill="white"/>
<path d="M125.755 28.1601V14.6199H120.71V12.561H133.445V14.6199H128.425V28.1601H125.755Z" fill="black"/>
<path d="M135.177 28.1601V11.8343H137.846V17.793C138.352 17.3893 138.956 17.0663 139.658 16.8241C140.36 16.5657 141.152 16.4365 142.034 16.4365C143.503 16.4365 144.589 16.7837 145.291 17.4781C145.993 18.1725 146.344 19.2544 146.344 20.7239V28.1601H143.699V20.845C143.699 19.9568 143.503 19.3351 143.112 18.9799C142.736 18.6246 142.075 18.447 141.128 18.447C140.54 18.447 139.944 18.5762 139.34 18.8345C138.736 19.0768 138.238 19.3997 137.846 19.8034V28.1601H135.177Z" fill="black"/>
<path d="M149.907 14.2808V12.1007H152.821V14.2808H149.907ZM150.127 28.1601V18.6892H148.364L148.609 16.6788H152.797V28.1601H150.127Z" fill="black"/>
<path d="M155.503 28.1601V16.6788H157.952L158.074 17.8899C158.597 17.4862 159.217 17.1471 159.935 16.8725C160.67 16.5819 161.478 16.4365 162.36 16.4365C163.862 16.4365 164.956 16.7837 165.642 17.4781C166.327 18.1725 166.67 19.2544 166.67 20.7239V28.1601H164.025V20.845C164.025 19.9568 163.838 19.3351 163.462 18.9799C163.103 18.6246 162.417 18.447 161.405 18.447C160.801 18.447 160.205 18.5681 159.617 18.8103C159.046 19.0525 158.564 19.3674 158.172 19.755V28.1601H155.503Z" fill="black"/>
<path d="M169.253 28.1601V11.8343H171.923V21.281L176.796 16.6788H179.858L175.131 21.3052L180.127 28.1601H177.31L173.465 22.7101L171.923 24.1634V28.1601H169.253Z" fill="black"/>
<path d="M186.274 28.4023C184.25 28.4023 182.682 27.9098 181.572 26.9248C180.462 25.9397 179.907 24.4299 179.907 22.3952C179.907 20.5543 180.38 19.101 181.327 18.0352C182.274 16.9694 183.711 16.4365 185.638 16.4365C187.401 16.4365 188.723 16.8968 189.605 17.8172C190.503 18.7215 190.952 19.8922 190.952 21.3294V23.461H182.454C182.584 24.5752 182.993 25.3423 183.678 25.7621C184.364 26.182 185.409 26.3919 186.813 26.3919C187.401 26.3919 188.005 26.3354 188.625 26.2223C189.246 26.1093 189.785 25.964 190.242 25.7863V27.7241C189.719 27.9502 189.115 28.1197 188.43 28.2328C187.76 28.3458 187.042 28.4023 186.274 28.4023ZM182.454 21.7412H188.601V20.9419C188.601 20.1506 188.381 19.537 187.94 19.101C187.499 18.6488 186.756 18.4228 185.711 18.4228C184.47 18.4228 183.613 18.6892 183.14 19.2221C182.682 19.755 182.454 20.5947 182.454 21.7412Z" fill="black"/>
<path d="M193.143 28.1601V16.6788H195.592L195.739 18.011C196.294 17.6557 196.955 17.3328 197.722 17.0421C198.49 16.7514 199.249 16.5496 200 16.4365V18.447C199.543 18.5277 199.045 18.6488 198.506 18.8103C197.984 18.9557 197.486 19.1252 197.012 19.319C196.539 19.4966 196.139 19.6823 195.812 19.8761V28.1601H193.143Z" fill="black"/>
<path d="M64.7518 28.4023C62.1357 28.4023 60.1531 27.6999 58.8039 26.295C57.4711 24.8901 56.8047 22.9927 56.8047 20.6028C56.8047 18.8911 57.0845 17.4216 57.6439 16.1943C58.2198 14.9509 59.0918 13.9982 60.26 13.3361C61.4282 12.6579 62.9173 12.3187 64.7272 12.3187C65.6486 12.3187 66.4877 12.3914 67.2445 12.5367C68.0179 12.6659 68.7336 12.8435 69.3917 13.0696V15.3708C68.7336 15.1124 68.0261 14.9186 67.2692 14.7894C66.5288 14.6441 65.7473 14.5714 64.9246 14.5714C62.9502 14.5714 61.5516 15.0882 60.7289 16.1216C59.9227 17.1551 59.5196 18.6488 59.5196 20.6028C59.5196 22.4275 59.9638 23.8163 60.8523 24.769C61.7408 25.7056 63.1147 26.1739 64.974 26.1739C65.7308 26.1739 66.4877 26.1174 67.2445 26.0043C68.0179 25.8752 68.7418 25.6814 69.4164 25.423V27.7483C68.7583 27.9583 68.0425 28.1197 67.2692 28.2328C66.5124 28.3458 65.6732 28.4023 64.7518 28.4023Z" fill="url(#paint1_linear_363_47)"/>
<path d="M74.5256 28.4023C73.5713 28.4023 72.8473 28.1763 72.3537 27.7241C71.8601 27.2558 71.6133 26.4888 71.6133 25.423V11.8343H74.3035V25.1808C74.3035 25.6329 74.3857 25.9397 74.5503 26.1012C74.7148 26.2627 74.9616 26.3434 75.2907 26.3434C75.6856 26.3434 76.064 26.295 76.426 26.1981V28.1117C76.1134 28.2247 75.809 28.2974 75.5128 28.3297C75.2331 28.3781 74.904 28.4023 74.5256 28.4023Z" fill="url(#paint2_linear_363_47)"/>
<path d="M83.7217 28.4023C81.6156 28.4023 80.069 27.8856 79.0817 26.8521C78.111 25.8186 77.6256 24.3411 77.6256 22.4194C77.6256 20.4978 78.1192 19.0202 79.1064 17.9868C80.0936 16.9533 81.6321 16.4365 83.7217 16.4365C85.8277 16.4365 87.3744 16.9533 88.3616 17.9868C89.3488 19.0202 89.8424 20.4978 89.8424 22.4194C89.8424 24.3411 89.3488 25.8186 88.3616 26.8521C87.3908 27.8856 85.8442 28.4023 83.7217 28.4023ZM83.7217 26.1739C84.9557 26.1739 85.8277 25.8832 86.3378 25.3019C86.8643 24.7044 87.1276 23.7436 87.1276 22.4194C87.1276 21.0953 86.8643 20.1425 86.3378 19.5612C85.8277 18.9799 84.9557 18.6892 83.7217 18.6892C82.5041 18.6892 81.6321 18.9799 81.1055 19.5612C80.5955 20.1425 80.3404 21.0953 80.3404 22.4194C80.3404 23.7436 80.5955 24.7044 81.1055 25.3019C81.6321 25.8832 82.5041 26.1739 83.7217 26.1739Z" fill="url(#paint3_linear_363_47)"/>
<path d="M96.2689 28.4023C94.8703 28.4023 93.7926 28.0229 93.0357 27.2639C92.2953 26.5049 91.9251 25.3907 91.9251 23.9212V16.6788H94.6153V23.9212C94.6153 24.7771 94.8292 25.4068 95.257 25.8106C95.6848 26.2143 96.3429 26.4161 97.2314 26.4161C97.8895 26.4161 98.4983 26.295 99.0578 26.0528C99.6172 25.8106 100.103 25.4876 100.514 25.0839V16.6788H103.179V28.1601H100.736L100.613 26.9732C100.086 27.3769 99.4609 27.716 98.7369 27.9906C98.0129 28.2651 97.1903 28.4023 96.2689 28.4023Z" fill="url(#paint4_linear_363_47)"/>
<path d="M110.743 28.4023C109.69 28.4023 108.76 28.2247 107.954 27.8695C107.148 27.5142 106.523 26.9248 106.078 26.1012C105.634 25.2777 105.412 24.1715 105.412 22.7828C105.412 21.4102 105.65 20.2556 106.128 19.319C106.605 18.3662 107.263 17.6476 108.102 17.1632C108.958 16.6788 109.92 16.4365 110.99 16.4365C111.697 16.4365 112.322 16.5173 112.865 16.6788C113.425 16.8402 113.96 17.0905 114.47 17.4296V11.8343H117.16V28.1601H114.865L114.692 27.0217C114.165 27.49 113.589 27.8372 112.964 28.0632C112.339 28.2893 111.598 28.4023 110.743 28.4023ZM111.459 26.4161C112.66 26.4161 113.663 26.0124 114.47 25.205V19.4643C113.696 18.7861 112.726 18.447 111.557 18.447C110.422 18.447 109.566 18.8184 108.991 19.5612C108.415 20.304 108.127 21.386 108.127 22.807C108.127 24.1796 108.39 25.1243 108.917 25.641C109.459 26.1577 110.307 26.4161 111.459 26.4161Z" fill="url(#paint5_linear_363_47)"/>
<defs>
<linearGradient id="paint0_linear_363_47" x1="-1.15457" y1="28.4039" x2="66.4531" y2="12.627" gradientUnits="userSpaceOnUse">
<stop stop-color="#09AAAA"/>
<stop stop-color="#0C93C0"/>
<stop offset="1" stop-color="#0FF080"/>
</linearGradient>
<linearGradient id="paint1_linear_363_47" x1="3.61048" y1="28.4023" x2="91.3611" y2="-23.2827" gradientUnits="userSpaceOnUse">
<stop offset="0.390145" stop-color="#0FCC98"/>
<stop offset="1" stop-color="#0DAB7F"/>
</linearGradient>
<linearGradient id="paint2_linear_363_47" x1="3.61048" y1="28.4023" x2="91.3611" y2="-23.2827" gradientUnits="userSpaceOnUse">
<stop offset="0.390145" stop-color="#0FCC98"/>
<stop offset="1" stop-color="#0DAB7F"/>
</linearGradient>
<linearGradient id="paint3_linear_363_47" x1="3.61048" y1="28.4023" x2="91.3611" y2="-23.2827" gradientUnits="userSpaceOnUse">
<stop offset="0.390145" stop-color="#0FCC98"/>
<stop offset="1" stop-color="#0DAB7F"/>
</linearGradient>
<linearGradient id="paint4_linear_363_47" x1="3.61048" y1="28.4023" x2="91.3611" y2="-23.2827" gradientUnits="userSpaceOnUse">
<stop offset="0.390145" stop-color="#0FCC98"/>
<stop offset="1" stop-color="#0DAB7F"/>
</linearGradient>
<linearGradient id="paint5_linear_363_47" x1="3.61048" y1="28.4023" x2="91.3611" y2="-23.2827" gradientUnits="userSpaceOnUse">
<stop offset="0.390145" stop-color="#0FCC98"/>
<stop offset="1" stop-color="#0DAB7F"/>
</linearGradient>
</defs>
</svg>
