<?xml version="1.0" encoding="UTF-8" standalone="no"?>
<!DOCTYPE svg PUBLIC "-//W3C//DTD SVG 1.1//EN"
 "http://www.w3.org/Graphics/SVG/1.1/DTD/svg11.dtd">
<!-- Generated by graphviz version 14.1.2 (20260124.0452)
 -->
<!-- Pages: 1 -->
<svg width="1133pt" height="701pt"
 viewBox="0.00 0.00 1133.00 701.00" xmlns="http://www.w3.org/2000/svg" xmlns:xlink="http://www.w3.org/1999/xlink"><style>svg{color:currentColor;}svg text{fill:currentColor!important;fill-opacity:0.92;}svg .edge path{stroke:currentColor!important;stroke-opacity:0.55;fill:none;}svg .edge polygon{stroke:currentColor!important;stroke-opacity:0.85;fill:currentColor!important;fill-opacity:0.85;}svg .edge text{font-weight:600;}svg .cluster path[stroke="#d1d5db" i],svg .cluster polygon[stroke="#d1d5db" i]{stroke:currentColor!important;stroke-opacity:0.25;}svg .cluster path[fill="#f3f4f6" i],svg .cluster polygon[fill="#f3f4f6" i]{fill:currentColor!important;fill-opacity:0.05;}</style>
<g id="graph0" class="graph" transform="scale(1 1) rotate(0) translate(43.2 658.2)">
<g id="clust1" class="cluster">
<title>cluster_end users</title>
<path fill="none" stroke="none" stroke-width="1.8" d="M20,-201C20,-201 100,-201 100,-201 106,-201 112,-207 112,-213 112,-213 112,-380 112,-380 112,-386 106,-392 100,-392 100,-392 20,-392 20,-392 14,-392 8,-386 8,-380 8,-380 8,-213 8,-213 8,-207 14,-201 20,-201"/>
<text xml:space="preserve" text-anchor="middle" x="40" y="-377.55" font-family="Inter, ui-sans-serif, system-ui, sans-serif" font-size="11.00" fill="#374151">end users</text>
</g>
<g id="clust2" class="cluster">
<title>cluster_vpc&#45;prod</title>
<path fill="#f3f4f6" stroke="#d97706" stroke-width="1.8" d="M351.5,-8C351.5,-8 1026.75,-8 1026.75,-8 1032.75,-8 1038.75,-14 1038.75,-20 1038.75,-20 1038.75,-595 1038.75,-595 1038.75,-601 1032.75,-607 1026.75,-607 1026.75,-607 351.5,-607 351.5,-607 345.5,-607 339.5,-601 339.5,-595 339.5,-595 339.5,-20 339.5,-20 339.5,-14 345.5,-8 351.5,-8"/>
<text xml:space="preserve" text-anchor="middle" x="371.12" y="-592.55" font-family="Inter, ui-sans-serif, system-ui, sans-serif" font-size="11.00" fill="#d97706">vpc&#45;prod</text>
</g>
<g id="clust3" class="cluster">
<title>cluster_public subnet</title>
<path fill="#f3f4f6" stroke="#db2777" stroke-width="1.8" d="M367.5,-201C367.5,-201 447.5,-201 447.5,-201 453.5,-201 459.5,-207 459.5,-213 459.5,-213 459.5,-380 459.5,-380 459.5,-386 453.5,-392 447.5,-392 447.5,-392 367.5,-392 367.5,-392 361.5,-392 355.5,-386 355.5,-380 355.5,-380 355.5,-213 355.5,-213 355.5,-207 361.5,-201 367.5,-201"/>
<text xml:space="preserve" text-anchor="middle" x="397.25" y="-377.55" font-family="Inter, ui-sans-serif, system-ui, sans-serif" font-size="11.00" fill="#db2777">public subnet</text>
</g>
<g id="clust4" class="cluster">
<title>cluster_app tier</title>
<path fill="#f3f4f6" stroke="#2563eb" stroke-width="1.8" d="M537.5,-24C537.5,-24 617.5,-24 617.5,-24 623.5,-24 629.5,-30 629.5,-36 629.5,-36 629.5,-557 629.5,-557 629.5,-563 623.5,-569 617.5,-569 617.5,-569 537.5,-569 537.5,-569 531.5,-569 525.5,-563 525.5,-557 525.5,-557 525.5,-36 525.5,-36 525.5,-30 531.5,-24 537.5,-24"/>
<text xml:space="preserve" text-anchor="middle" x="552.62" y="-554.55" font-family="Inter, ui-sans-serif, system-ui, sans-serif" font-size="11.00" fill="#2563eb">app tier</text>
</g>
<g id="clust5" class="cluster">
<title>cluster_data tier</title>
<path fill="#f3f4f6" stroke="#1e40af" stroke-width="1.8" d="M724.75,-60C724.75,-60 1010.75,-60 1010.75,-60 1016.75,-60 1022.75,-66 1022.75,-72 1022.75,-72 1022.75,-416 1022.75,-416 1022.75,-422 1016.75,-428 1010.75,-428 1010.75,-428 724.75,-428 724.75,-428 718.75,-428 712.75,-422 712.75,-416 712.75,-416 712.75,-72 712.75,-72 712.75,-66 718.75,-60 724.75,-60"/>
<text xml:space="preserve" text-anchor="middle" x="741.38" y="-413.55" font-family="Inter, ui-sans-serif, system-ui, sans-serif" font-size="11.00" fill="#1e40af">data tier</text>
</g>
<!-- f05a8da5345b4e9db41a448d918b9dc9 -->
<g id="node1" class="node">
<title>f05a8da5345b4e9db41a448d918b9dc9</title>
<image xlink:href="/Users/bmd1905/BuilderStudio/cloud-cost-optimization/backend/.venv/lib/python3.12/site-packages/resources/onprem/client/users.png" width="72px" height="72px" preserveAspectRatio="xMinYMin meet" x="24" y="-321"/>
<text xml:space="preserve" text-anchor="middle" x="60" y="-220" font-family="Inter, ui-sans-serif, system-ui, sans-serif" font-size="13.00" fill="#6b7280">customers</text>
</g>
<!-- 37fae02b315c4ba38f8c21241c9272e9 -->
<g id="node2" class="node">
<title>37fae02b315c4ba38f8c21241c9272e9</title>
<image xlink:href="/Users/bmd1905/BuilderStudio/cloud-cost-optimization/backend/.venv/lib/python3.12/site-packages/resources/aws/network/route-53.png" width="72px" height="72px" preserveAspectRatio="xMinYMin meet" x="189.5" y="-321"/>
<text xml:space="preserve" text-anchor="middle" x="225.5" y="-220" font-family="Inter, ui-sans-serif, system-ui, sans-serif" font-size="13.00" fill="#6b7280">app.example.com</text>
</g>
<!-- f05a8da5345b4e9db41a448d918b9dc9&#45;&gt;37fae02b315c4ba38f8c21241c9272e9 -->
<g id="edge2" class="edge">
<title>f05a8da5345b4e9db41a448d918b9dc9&#45;&gt;37fae02b315c4ba38f8c21241c9272e9</title>
<path fill="none" stroke="#9ca3af" d="M95.91,-285C95.91,-285 178.15,-285 178.15,-285"/>
<polygon fill="#9ca3af" stroke="#9ca3af" points="178.15,-288.5 188.15,-285 178.15,-281.5 178.15,-288.5"/>
<text xml:space="preserve" text-anchor="middle" x="142.75" y="-288.8" font-family="Inter, ui-sans-serif, system-ui, sans-serif" font-size="11.00" fill="#6b7280">1 HTTPS</text>
</g>
<!-- 5943bdf25ada4b27b9e8da3a0aad08ad -->
<g id="node5" class="node">
<title>5943bdf25ada4b27b9e8da3a0aad08ad</title>
<image xlink:href="/Users/bmd1905/BuilderStudio/cloud-cost-optimization/backend/.venv/lib/python3.12/site-packages/resources/aws/network/elastic-load-balancing.png" width="72px" height="72px" preserveAspectRatio="xMinYMin meet" x="371.5" y="-321"/>
<text xml:space="preserve" text-anchor="middle" x="407.5" y="-220" font-family="Inter, ui-sans-serif, system-ui, sans-serif" font-size="13.00" fill="#6b7280">alb</text>
</g>
<!-- 37fae02b315c4ba38f8c21241c9272e9&#45;&gt;5943bdf25ada4b27b9e8da3a0aad08ad -->
<g id="edge3" class="edge">
<title>37fae02b315c4ba38f8c21241c9272e9&#45;&gt;5943bdf25ada4b27b9e8da3a0aad08ad</title>
<path fill="none" stroke="#9ca3af" d="M261.46,-285C261.46,-285 360.1,-285 360.1,-285"/>
<polygon fill="#9ca3af" stroke="#9ca3af" points="360.1,-288.5 370.1,-285 360.1,-281.5 360.1,-288.5"/>
<text xml:space="preserve" text-anchor="middle" x="309" y="-288.8" font-family="Inter, ui-sans-serif, system-ui, sans-serif" font-size="11.00" fill="#6b7280">2 resolve</text>
</g>
<!-- 8f17801ae2d3454ab952c0ea534d1afa -->
<g id="node3" class="node">
<title>8f17801ae2d3454ab952c0ea534d1afa</title>
<image xlink:href="/Users/bmd1905/BuilderStudio/cloud-cost-optimization/backend/.venv/lib/python3.12/site-packages/resources/aws/database/rds.png" width="72px" height="72px" preserveAspectRatio="xMinYMin meet" x="728.75" y="-180"/>
<text xml:space="preserve" text-anchor="middle" x="764.75" y="-79" font-family="Inter, ui-sans-serif, system-ui, sans-serif" font-size="13.00" fill="#6b7280">primary</text>
</g>
<!-- 7b82b9a12311454f892d9a1cfea2cf63 -->
<g id="node4" class="node">
<title>7b82b9a12311454f892d9a1cfea2cf63</title>
<image xlink:href="/Users/bmd1905/BuilderStudio/cloud-cost-optimization/backend/.venv/lib/python3.12/site-packages/resources/aws/database/rds.png" width="72px" height="72px" preserveAspectRatio="xMinYMin meet" x="934.75" y="-180"/>
<text xml:space="preserve" text-anchor="middle" x="970.75" y="-79" font-family="Inter, ui-sans-serif, system-ui, sans-serif" font-size="13.00" fill="#6b7280">replica</text>
</g>
<!-- 8f17801ae2d3454ab952c0ea534d1afa&#45;&gt;7b82b9a12311454f892d9a1cfea2cf63 -->
<g id="edge1" class="edge">
<title>8f17801ae2d3454ab952c0ea534d1afa&#45;&gt;7b82b9a12311454f892d9a1cfea2cf63</title>
<path fill="none" stroke="#9ca3af" stroke-dasharray="5,2" d="M800.63,-144C838.33,-144 897.26,-144 934.93,-144"/>
<text xml:space="preserve" text-anchor="middle" x="867.75" y="-147.8" font-family="Inter, ui-sans-serif, system-ui, sans-serif" font-size="11.00" fill="#6b7280">async replication</text>
</g>
<!-- 746206981ebb409eb478d8cbc11e4fc1 -->
<g id="node6" class="node">
<title>746206981ebb409eb478d8cbc11e4fc1</title>
<image xlink:href="/Users/bmd1905/BuilderStudio/cloud-cost-optimization/backend/.venv/lib/python3.12/site-packages/resources/aws/compute/ec2.png" width="72px" height="72px" preserveAspectRatio="xMinYMin meet" x="541.5" y="-144"/>
<text xml:space="preserve" text-anchor="middle" x="577.5" y="-43" font-family="Inter, ui-sans-serif, system-ui, sans-serif" font-size="13.00" fill="#6b7280">web&#45;1</text>
</g>
<!-- 5943bdf25ada4b27b9e8da3a0aad08ad&#45;&gt;746206981ebb409eb478d8cbc11e4fc1 -->
<g id="edge4" class="edge">
<title>5943bdf25ada4b27b9e8da3a0aad08ad&#45;&gt;746206981ebb409eb478d8cbc11e4fc1</title>
<path fill="none" stroke="#9ca3af" d="M407.75,-216.82C407.75,-166.96 407.75,-108 407.75,-108 407.75,-108 529.99,-108 529.99,-108"/>
<polygon fill="#9ca3af" stroke="#9ca3af" points="529.99,-111.5 539.99,-108 529.99,-104.5 529.99,-111.5"/>
<text xml:space="preserve" text-anchor="middle" x="492.5" y="-170.8" font-family="Inter, ui-sans-serif, system-ui, sans-serif" font-size="11.00" fill="#6b7280">3 forward</text>
</g>
<!-- 3ce1b25bc6bb4fa4a190c2ecbd1942df -->
<g id="node7" class="node">
<title>3ce1b25bc6bb4fa4a190c2ecbd1942df</title>
<image xlink:href="/Users/bmd1905/BuilderStudio/cloud-cost-optimization/backend/.venv/lib/python3.12/site-packages/resources/aws/compute/ec2.png" width="72px" height="72px" preserveAspectRatio="xMinYMin meet" x="541.5" y="-321"/>
<text xml:space="preserve" text-anchor="middle" x="577.5" y="-220" font-family="Inter, ui-sans-serif, system-ui, sans-serif" font-size="13.00" fill="#6b7280">web&#45;2</text>
</g>
<!-- 5943bdf25ada4b27b9e8da3a0aad08ad&#45;&gt;3ce1b25bc6bb4fa4a190c2ecbd1942df -->
<g id="edge5" class="edge">
<title>5943bdf25ada4b27b9e8da3a0aad08ad&#45;&gt;3ce1b25bc6bb4fa4a190c2ecbd1942df</title>
<path fill="none" stroke="#9ca3af" d="M443.14,-285C443.14,-285 530.1,-285 530.1,-285"/>
<polygon fill="#9ca3af" stroke="#9ca3af" points="530.1,-288.5 540.1,-285 530.1,-281.5 530.1,-288.5"/>
<text xml:space="preserve" text-anchor="middle" x="492.5" y="-288.8" font-family="Inter, ui-sans-serif, system-ui, sans-serif" font-size="11.00" fill="#6b7280">3 forward</text>
</g>
<!-- 468ad86d1cb149039dd219256f2ab068 -->
<g id="node8" class="node">
<title>468ad86d1cb149039dd219256f2ab068</title>
<image xlink:href="/Users/bmd1905/BuilderStudio/cloud-cost-optimization/backend/.venv/lib/python3.12/site-packages/resources/aws/compute/ec2.png" width="72px" height="72px" preserveAspectRatio="xMinYMin meet" x="541.5" y="-498"/>
<text xml:space="preserve" text-anchor="middle" x="577.5" y="-397" font-family="Inter, ui-sans-serif, system-ui, sans-serif" font-size="13.00" fill="#6b7280">web&#45;3</text>
</g>
<!-- 5943bdf25ada4b27b9e8da3a0aad08ad&#45;&gt;468ad86d1cb149039dd219256f2ab068 -->
<g id="edge6" class="edge">
<title>5943bdf25ada4b27b9e8da3a0aad08ad&#45;&gt;468ad86d1cb149039dd219256f2ab068</title>
<path fill="none" stroke="#9ca3af" d="M407.75,-353.18C407.75,-403.04 407.75,-462 407.75,-462 407.75,-462 529.99,-462 529.99,-462"/>
<polygon fill="#9ca3af" stroke="#9ca3af" points="529.99,-465.5 539.99,-462 529.99,-458.5 529.99,-465.5"/>
<text xml:space="preserve" text-anchor="middle" x="492.5" y="-406.8" font-family="Inter, ui-sans-serif, system-ui, sans-serif" font-size="11.00" fill="#6b7280">3 forward</text>
</g>
<!-- 746206981ebb409eb478d8cbc11e4fc1&#45;&gt;8f17801ae2d3454ab952c0ea534d1afa -->
<g id="edge10" class="edge">
<title>746206981ebb409eb478d8cbc11e4fc1&#45;&gt;8f17801ae2d3454ab952c0ea534d1afa</title>
<path fill="none" stroke="#9ca3af" d="M613.16,-109.2C613.16,-109.2 717.39,-109.2 717.39,-109.2"/>
<polygon fill="#9ca3af" stroke="#9ca3af" points="717.39,-112.7 727.39,-109.2 717.39,-105.7 717.39,-112.7"/>
<text xml:space="preserve" text-anchor="middle" x="671.12" y="-111.8" font-family="Inter, ui-sans-serif, system-ui, sans-serif" font-size="11.00" fill="#6b7280">5 query</text>
</g>
<!-- 5d35778ba0494c148d19999fed9d816e -->
<g id="node9" class="node">
<title>5d35778ba0494c148d19999fed9d816e</title>
<image xlink:href="/Users/bmd1905/BuilderStudio/cloud-cost-optimization/backend/.venv/lib/python3.12/site-packages/resources/aws/database/elasticache.png" width="72px" height="72px" preserveAspectRatio="xMinYMin meet" x="728.75" y="-357"/>
<text xml:space="preserve" text-anchor="middle" x="764.75" y="-256" font-family="Inter, ui-sans-serif, system-ui, sans-serif" font-size="13.00" fill="#6b7280">redis</text>
</g>
<!-- 746206981ebb409eb478d8cbc11e4fc1&#45;&gt;5d35778ba0494c148d19999fed9d816e -->
<g id="edge7" class="edge">
<title>746206981ebb409eb478d8cbc11e4fc1&#45;&gt;5d35778ba0494c148d19999fed9d816e</title>
<path fill="none" stroke="#9ca3af" d="M613.33,-142.8C646.51,-142.8 690.75,-142.8 690.75,-142.8 690.75,-142.8 690.75,-286.2 690.75,-286.2 690.75,-286.2 717.54,-286.2 717.54,-286.2"/>
<polygon fill="#9ca3af" stroke="#9ca3af" points="717.54,-289.7 727.54,-286.2 717.54,-282.7 717.54,-289.7"/>
<text xml:space="preserve" text-anchor="middle" x="671.12" y="-236.8" font-family="Inter, ui-sans-serif, system-ui, sans-serif" font-size="11.00" fill="#6b7280">4 cache read</text>
</g>
<!-- 3ce1b25bc6bb4fa4a190c2ecbd1942df&#45;&gt;8f17801ae2d3454ab952c0ea534d1afa -->
<g id="edge11" class="edge">
<title>3ce1b25bc6bb4fa4a190c2ecbd1942df&#45;&gt;8f17801ae2d3454ab952c0ea534d1afa</title>
<path fill="none" stroke="#9ca3af" d="M613.16,-234.6C667.49,-234.6 764.75,-234.6 764.75,-234.6 764.75,-234.6 764.75,-223.72 764.75,-223.72"/>
<polygon fill="#9ca3af" stroke="#9ca3af" points="768.25,-223.72 764.75,-213.72 761.25,-223.72 768.25,-223.72"/>
<text xml:space="preserve" text-anchor="middle" x="671.12" y="-177.8" font-family="Inter, ui-sans-serif, system-ui, sans-serif" font-size="11.00" fill="#6b7280">5 query</text>
</g>
<!-- 3ce1b25bc6bb4fa4a190c2ecbd1942df&#45;&gt;5d35778ba0494c148d19999fed9d816e -->
<g id="edge8" class="edge">
<title>3ce1b25bc6bb4fa4a190c2ecbd1942df&#45;&gt;5d35778ba0494c148d19999fed9d816e</title>
<path fill="none" stroke="#9ca3af" d="M613.16,-319.8C613.16,-319.8 717.39,-319.8 717.39,-319.8"/>
<polygon fill="#9ca3af" stroke="#9ca3af" points="717.39,-323.3 727.39,-319.8 717.39,-316.3 717.39,-323.3"/>
<text xml:space="preserve" text-anchor="middle" x="671.12" y="-295.8" font-family="Inter, ui-sans-serif, system-ui, sans-serif" font-size="11.00" fill="#6b7280">4 cache read</text>
</g>
<!-- 468ad86d1cb149039dd219256f2ab068&#45;&gt;8f17801ae2d3454ab952c0ea534d1afa -->
<g id="edge12" class="edge">
<title>468ad86d1cb149039dd219256f2ab068&#45;&gt;8f17801ae2d3454ab952c0ea534d1afa</title>
<path fill="none" stroke="#9ca3af" d="M613.32,-462C632.31,-462 651.75,-462 651.75,-462 651.75,-462 651.75,-194.4 651.75,-194.4 651.75,-194.4 717.48,-194.4 717.48,-194.4"/>
<polygon fill="#9ca3af" stroke="#9ca3af" points="717.48,-197.9 727.48,-194.4 717.48,-190.9 717.48,-197.9"/>
<text xml:space="preserve" text-anchor="middle" x="671.12" y="-383.8" font-family="Inter, ui-sans-serif, system-ui, sans-serif" font-size="11.00" fill="#6b7280">5 query</text>
</g>
<!-- 468ad86d1cb149039dd219256f2ab068&#45;&gt;5d35778ba0494c148d19999fed9d816e -->
<g id="edge9" class="edge">
<title>468ad86d1cb149039dd219256f2ab068&#45;&gt;5d35778ba0494c148d19999fed9d816e</title>
<path fill="none" stroke="#9ca3af" d="M577.75,-393.8C577.75,-380.92 577.75,-371.4 577.75,-371.4 577.75,-371.4 717.62,-371.4 717.62,-371.4"/>
<polygon fill="#9ca3af" stroke="#9ca3af" points="717.62,-374.9 727.62,-371.4 717.62,-367.9 717.62,-374.9"/>
<text xml:space="preserve" text-anchor="middle" x="671.12" y="-457.8" font-family="Inter, ui-sans-serif, system-ui, sans-serif" font-size="11.00" fill="#6b7280">4 cache read</text>
</g>
</g>
</svg>
